<?xml version="1.0" encoding="utf-8"?>
<!-- Generator: Adobe Illustrator 16.0.2, SVG Export Plug-In . SVG Version: 6.00 Build 0)  -->
<!DOCTYPE svg PUBLIC "-//W3C//DTD SVG 1.1//EN" "http://www.w3.org/Graphics/SVG/1.1/DTD/svg11.dtd">
<svg version="1.1" id="Слой_1" xmlns="http://www.w3.org/2000/svg" xmlns:xlink="http://www.w3.org/1999/xlink" x="0px" y="0px"
	 width="612px" height="792px" viewBox="0 0 612 792" enable-background="new 0 0 612 792" xml:space="preserve">
<g>
	<polygon fill="#1072BA" points="96.574,1057.681 95.958,1060.192 90.174,1060.146 90.885,1057.681 	"/>
	<g>
		<path fill="#B7E1E9" d="M106.151,1000.079c-0.948,3.271-2.417,11.283-4.456,16.402c-2.039,5.121-7.017,14.744-13.844,35.131
			c-0.379,1.09-1.327,4.408-1.564,6.779c-0.616,0-2.607,0-4.077,0c0.854-1.85,2.797-4.504,3.888-7.871
			c3.461-10.762,5.215-26.832,8.06-35.793c2.56-8.059,5.642-12.279,6.827-15.93C102.074,995.194,107.241,996.286,106.151,1000.079z"
			/>
		<g>
			<path fill="#B7E1E9" d="M119.188,1002.733c0.142,5.643-2.987,57.412-2.987,57.412l-1.801-5.357
				c0.806-8.912-0.332-21.666-2.134-31.053c-1.801-9.434-1.659-11.898-1.327-13.701c0.332-1.801,1.659-7.254,1.659-7.254h6.59
				V1002.733z"/>
			<path fill="#1072BA" d="M114.59,1051.423c0,0-1.517,0.234-2.181,1.326c0.758,2.086,1.09,7.443,1.09,7.443h0.711L114.59,1051.423z
				"/>
			<polygon fill="#1072BA" points="116.201,1060.146 121.085,1060.146 116.296,1058.106 			"/>
		</g>
		<g>
			<polygon fill="#8ECAD9" points="158.869,906.398 159.628,906.02 163.136,909.953 162.14,913.084 			"/>
			<polygon fill="#B7E1E9" points="155.456,928.443 160.386,937.5 163.373,914.742 162.14,913.084 162.615,907.773 161.951,906.967 
				161.24,907.109 161.429,907.963 160.719,908.389 159.865,906.303 162.852,904.977 165.222,907.727 166.597,913.178 
				164.701,948.118 160.955,948.735 150.478,929.961 			"/>
		</g>
		<path fill="#1072BA" d="M111.413,953.19c-1.802,3.178-6.875,5.264-8.818,14.082c-1.943,8.816-4.361,36.172-4.361,36.172
			l21.998,2.607c0,0,5.073-46.365,4.172-51.771C123.55,948.829,112.409,951.485,111.413,953.19z"/>
		<path fill="#0F91D1" d="M150.383,912.609l9.245,21.191l-6.211,3.982c0,0-9.15-18.822-11.663-24.559
			C139.621,908.152,150.383,912.609,150.383,912.609z"/>
		<g>
			<path fill="#56B8CC" d="M149.103,911.898c-1.659-0.996-5.832-3.414-7.728-4.553c-14.365,10.432-13.132,40.915-30.01,46.981
				c2.655,1.564,7.775,4.602,10.43,6.164c0.616-5.264,15.692-23.04,21.097-30.247C145.548,930.34,147.681,916.924,149.103,911.898z"
				/>
			<g>
				<path fill="#602A79" d="M167.687,885.965c1.802,3.697-1.185,12.043-4.172,15.219c-3.366,3.604-9.245,9.102-9.529,12.611
					c-3.271-3.982-5.594-7.492-7.111-13.229C156.404,887.719,165.507,881.51,167.687,885.965z"/>
				<g>
					<path fill="#B7E1E9" d="M151,896.158c-0.521-4.268,4.361-13.748,9.434-13.512c4.077,0.145,6.068,2.086,7.064,4.029
						c1.659,3.178,0.332,13.938,0.332,13.938l-1.517-1.09c0,0-2.323,3.889-4.646,4.932c-5.547,2.416-10.098-1.896-14.697,6.209
						c-1.944,3.414-4.267,0.902-2.75-1.563C147.634,903.648,151.284,898.719,151,896.158z"/>
				</g>
				<g>
					<path fill="#1072BA" d="M167.166,893.836c-0.047,0.568-0.521,0.947-1.09,0.898c-0.569-0.047-0.948-0.52-0.901-1.09
						c0.048-0.568,0.521-0.947,1.091-0.9C166.834,892.793,167.213,893.266,167.166,893.836z"/>
					<path fill="#1072BA" d="M165.08,892.934c-0.047,0.57-0.521,0.949-1.09,0.902c-0.521-0.049-0.948-0.521-0.901-1.092
						c0.047-0.568,0.521-0.947,1.09-0.9C164.701,891.891,165.127,892.412,165.08,892.934z"/>
				</g>
			</g>
		</g>
		<polygon fill="#B7E1E9" points="147.918,911.234 142.134,929.25 143.272,908.484 		"/>
		<path fill="#1072BA" d="M141.328,907.395l1.896,1.09l-0.332,21.76l6.21-18.346l1.28,0.711c0,0-4.93,16.355-4.267,20.102
			c-3.129,2.607-9.15,7.586-21.476,31.147c-1.944-1.139-16.119-9.48-18.679-10.998c10.146-1.092,22.614-22.474,23.278-37.122
			C135.26,908.295,141.328,907.395,141.328,907.395z"/>
		
			<ellipse transform="matrix(-0.861 -0.5087 0.5087 -0.861 -222.7301 1812.6897)" fill="#B7E1E9" cx="136.374" cy="936.785" rx="0.284" ry="0.852"/>
		
			<ellipse transform="matrix(-0.8612 -0.5083 0.5083 -0.8612 -233.5685 1823.8484)" fill="#B7E1E9" cx="132.265" cy="943.818" rx="0.284" ry="0.852"/>
		
			<ellipse transform="matrix(-0.8618 -0.5072 0.5072 -0.8618 -243.6013 1835.2305)" fill="#B7E1E9" cx="128.159" cy="950.794" rx="0.285" ry="0.854"/>
		<polygon fill="#B7E1E9" points="141.613,933.09 136.872,918.203 140.902,916.592 138.342,913.699 142.181,909.195 
			142.276,909.242 138.436,913.699 141.044,916.592 137.014,918.25 141.707,933.09 		"/>
		<path fill="#602A79" d="M167.545,887.387c-2.133,2.656-6.068,4.268-9.008,4.172c-4.077,3.889-11.093,13.275-11.52,16.973
			c-2.181-2.133-4.22-6.398-4.741-9.34c2.75-7.963,12.99-21.996,20.481-19.248c4.077,1.473,7.87,6.068,5.5,12.279
			C168.161,890.801,168.067,890.186,167.545,887.387z"/>
		<polygon fill="#B7E1E9" points="84.532,952.765 102.974,924.271 116.628,917.445 119.426,921.854 105.961,928.49 87.946,954.614 
					"/>
		<g>
			<path fill="#B7E1E9" d="M87.472,954.614c-0.332,0.094-0.521,0.475-0.427,0.807l0.616,2.037c0.095,0.332,0.474,0.521,0.806,0.428
				l0,0c0.332-0.096,0.521-0.475,0.427-0.807l-0.617-2.039C88.183,954.661,87.803,954.472,87.472,954.614z"/>
			<g>
				<path fill="#0F91D1" d="M90.932,959.354c-0.189-0.521-0.569-0.996-1.138-1.232l-8.913-4.457
					c-1.043-0.521-2.229-0.143-2.703,0.807l-2.133,4.268l1.233,0.615l2.133-4.266c0.142-0.285,0.569-0.332,0.854-0.189l8.913,4.455
					c0.332,0.143,0.569,0.57,0.427,0.807l-2.133,4.268l1.232,0.617l2.133-4.27C91.075,960.351,91.122,959.829,90.932,959.354
					L90.932,959.354z"/>
			</g>
			<g>
				<path fill="#0F91D1" d="M60.733,970.495c-0.664,1.375-0.142,3.035,1.233,3.746l22.756,11.377
					c1.375,0.664,3.034,0.143,3.746-1.23l7.396-14.793c0.664-1.375,0.142-3.033-1.232-3.744l-22.756-11.379
					c-1.375-0.711-3.034-0.143-3.745,1.232L60.733,970.495z"/>
			</g>
			<g>
				<g>
					<path fill="#B7E1E9" d="M83.632,953.05c0.189-0.332,0.569-0.43,0.901-0.285l3.414,1.85c0.332,0.189,0.426,0.568,0.284,0.9
						l-0.948,1.801c-0.189,0.332-0.569,0.428-0.9,0.285l-3.414-1.852c-0.332-0.188-0.427-0.566-0.285-0.898L83.632,953.05z"/>
					<g>
						<path fill="#B7E1E9" d="M86.097,956.7c0.189-0.332,0.047-0.711-0.285-0.9c-0.332-0.189-0.711-0.049-0.9,0.283l-0.616,1.186
							c-0.19,0.332-0.048,0.711,0.284,0.9l0,0c0.332,0.189,0.711,0.049,0.901-0.283L86.097,956.7z"/>
						<path fill="#B7E1E9" d="M87.282,957.315c0.19-0.332,0.047-0.711-0.284-0.9c-0.332-0.189-0.711-0.047-0.901,0.285l-0.616,1.186
							c-0.19,0.332-0.047,0.711,0.284,0.9l0,0c0.332,0.189,0.711,0.047,0.901-0.285L87.282,957.315z"/>
						<path fill="#B7E1E9" d="M84.675,955.183c-0.332-0.189-0.711-0.047-0.901,0.285l-0.616,1.184
							c-0.189,0.332-0.047,0.713,0.285,0.902l0,0c0.332,0.188,0.711,0.047,0.901-0.285l0.616-1.188
							C85.149,955.751,85.007,955.372,84.675,955.183z"/>
						<path fill="#B7E1E9" d="M83.821,955.468c0.19-0.332,0.048-0.713-0.284-0.902c-0.332-0.188-0.711-0.047-0.901,0.285
							l-0.616,1.186c-0.189,0.332-0.047,0.711,0.285,0.9c0.332,0.188,0.711,0.047,0.9-0.285L83.821,955.468z"/>
					</g>
				</g>
			</g>
		</g>
		<path fill="#0F91D1" d="M141.755,903.98c-0.521-2.605-31.574,14.744-31.574,14.744l3.888,7.111c0,0,17.494-8.061,21.761-10.146
			C137.299,914.363,142.513,907.773,141.755,903.98z"/>
	</g>
</g>
<g>
	<g>
		<circle fill="#B7E1E9" cx="155.979" cy="739.991" r="2.418"/>
		<circle fill="#B7E1E9" cx="142.847" cy="739.991" r="2.418"/>
		<circle fill="#B7E1E9" cx="143.321" cy="736.483" r="2.418"/>
		<circle fill="#B7E1E9" cx="146.26" cy="737.573" r="2.418"/>
		<circle fill="#B7E1E9" cx="149.816" cy="737.194" r="2.418"/>
		<circle fill="#B7E1E9" cx="148.109" cy="735.155" r="2.417"/>
		<circle fill="#B7E1E9" cx="145.691" cy="733.212" r="2.418"/>
		<circle fill="#B7E1E9" cx="149.863" cy="730.463" r="3.366"/>
		<circle fill="#B7E1E9" cx="155.979" cy="730.036" r="4.267"/>
		<circle fill="#B7E1E9" cx="163.233" cy="726.196" r="5.973"/>
		<circle fill="#B7E1E9" cx="169.206" cy="734.066" r="5.974"/>
		<circle fill="#B7E1E9" cx="173.378" cy="727.855" r="5.974"/>
		<circle fill="#B7E1E9" cx="172.999" cy="715.955" r="9.813"/>
		<circle fill="#B7E1E9" cx="188.406" cy="727.619" r="11.899"/>
		<circle fill="#B7E1E9" cx="210.736" cy="704.151" r="11.378"/>
		<circle fill="#B7E1E9" cx="191.251" cy="706.711" r="15.124"/>
		<circle fill="#B7E1E9" cx="204.051" cy="685.945" r="14.223"/>
		<circle fill="#B7E1E9" cx="153.229" cy="734.065" r="3.366"/>
		<circle fill="#B7E1E9" cx="156.69" cy="736.483" r="2.418"/>
		<circle fill="#B7E1E9" cx="159.63" cy="737.573" r="2.418"/>
		<circle fill="#B7E1E9" cx="163.185" cy="737.194" r="2.418"/>
		<circle fill="#B7E1E9" cx="161.478" cy="735.155" r="2.417"/>
		<circle fill="#B7E1E9" cx="159.061" cy="733.212" r="2.418"/>
		<circle fill="#B7E1E9" cx="163.233" cy="730.463" r="3.366"/>
		<circle fill="#B7E1E9" cx="166.598" cy="734.065" r="3.366"/>
	</g>
	<g>
		<polygon fill="#1072BA" points="145.264,739.991 140.476,739.991 139.481,768.484 146.26,768.484 		"/>
		<polygon fill="#1072BA" points="158.397,739.991 153.561,739.991 152.613,768.484 159.345,768.484 		"/>
		<g>
			<g>
				<path fill="#1072BA" d="M107.053,771.044v20.955h56.843v-20.955H107.053z M120.375,782.518h-2.276v-2.845h2.276V782.518z
					 M124.974,782.518h-2.276v-2.845h2.276V782.518z M132.796,777.397h-2.276v-2.845h2.276V777.397z M137.395,777.397h-2.275v-2.845
					h2.275V777.397z M141.993,777.397h-2.275v-2.845h2.275V777.397z M146.639,777.397h-2.275v-2.845h2.275V777.397z
					 M152.518,782.518h-2.276v-2.845h2.276V782.518z M157.117,782.518h-2.276v-2.845h2.276V782.518z"/>
				<polygon fill="#1072BA" points="107.053,754.356 107.053,771.044 120.849,771.044 				"/>
				<polygon fill="#1072BA" points="120.849,754.356 120.849,771.044 134.645,771.044 				"/>
			</g>
		</g>
		<rect x="138.627" y="768.484" fill="#1072BA" width="8.486" height="2.561"/>
		<rect x="151.712" y="768.484" fill="#1072BA" width="8.486" height="2.561"/>
	</g>
</g>
<g>
	<g>
		
			<rect x="298.973" y="935.9" transform="matrix(0.4943 -0.8693 0.8693 0.4943 -664.8521 737.7916)" fill="#B7E1E9" width="5.406" height="8.818"/>
		<g>
			<g>
				<g>
					<g>
						<path fill="#B7E1E9" d="M299.866,941.734c0.475-0.144,0.807-0.664,0.664-1.14l-1.424-5.215
							c-0.141-0.474-0.662-0.806-1.137-0.664l-2.703,0.761c-0.473,0.142-0.805,0.663-0.664,1.137l1.424,5.215
							c0.143,0.475,0.662,0.807,1.137,0.664L299.866,941.734z"/>
						<path fill="#1072BA" d="M296.405,943.347c0,0-3.318-12.09-3.318-12.138l1.139-0.332l0,0l-0.145-1.185
							c0.238-0.048,1.043-0.048,1.328,0.995l3.318,12.042L296.405,943.347L296.405,943.347z"/>
						<g>
							<path fill="#B7E1E9" d="M295.03,937.42c0.475-0.143,0.996,0.144,1.09,0.616c0.145,0.474-0.143,0.995-0.615,1.138
								l-1.943,0.521c-0.475,0.143-0.996-0.144-1.139-0.616l0,0c-0.143-0.474,0.143-0.995,0.615-1.138L295.03,937.42z"/>
							<path fill="#B7E1E9" d="M294.556,935.666c0.475-0.143,0.996,0.144,1.09,0.616c0.143,0.474-0.141,0.995-0.615,1.138
								l-1.943,0.521c-0.475,0.143-0.994-0.144-1.139-0.616l0,0c-0.143-0.474,0.143-0.995,0.617-1.138L294.556,935.666z"/>
							<path fill="#B7E1E9" d="M296.595,939.79c0.143,0.475-0.143,0.995-0.617,1.091l-1.422,0.379
								c-0.475,0.144-0.996-0.143-1.137-0.615c-0.145-0.475,0.141-0.995,0.615-1.139l1.422-0.379
								C295.978,939.031,296.499,939.316,296.595,939.79z"/>
							<path fill="#B7E1E9" d="M295.978,940.928c0.475-0.143,0.996,0.144,1.092,0.617c0.143,0.475-0.143,0.995-0.617,1.138
								l-0.711,0.188c-0.475,0.144-0.996-0.142-1.139-0.615c-0.141-0.475,0.143-0.996,0.617-1.139L295.978,940.928z"/>
						</g>
						<path fill="#B7E1E9" d="M299.013,936.045c-0.236,0.428-0.807,0.568-1.232,0.332l-2.656-1.518
							c-0.426-0.236-0.566-0.807-0.33-1.232c0.236-0.427,0.807-0.567,1.232-0.332l2.654,1.519
							C299.106,935.049,299.249,935.618,299.013,936.045z"/>
					</g>
				</g>
			</g>
		</g>
	</g>
	<path fill="#28296B" d="M355.618,1065.661c-0.475,0.9-2.891,1.469-4.691,1.186c-1.471-0.236-3.414,1.375-0.902,2.229
		c3.129,1.043,6.355,0.664,7.35-0.568c0,0.521,0,1.092,0,1.092h3.936l-0.426-3.889h-5.264v-0.049H355.618z"/>
	<path fill="#28296B" d="M389.657,1065.565c-0.473,0.9-2.938,1.424-4.738,1.092c-1.471-0.238-3.463,1.279-0.949,2.18
		c3.129,1.092,6.305,0.807,7.348-0.426c0,0.521,0,1.09,0,1.09l3.889,0.096l-0.332-3.936L389.657,1065.565z"/>
	<path fill="#1072BA" d="M332.437,909.117c1.043,24.937,1.516,53.287,1.516,53.287s-19.248-9.482-34.039-18.252l3.461-7.822
		c10.383,4.124,19.152,6.873,19.152,6.873s-2.273-16.119-4.93-32.332C321.579,910.539,329.876,909.449,332.437,909.117z"/>
	<g>
		<path fill="#602A79" d="M354.907,975.867c-0.9,31.054-2.133,61.634,0.568,87.851c1.375,0,0-0.049,5.357,0
			c0.428-28.352,10.523-60.305,18.584-87.897C384.302,959.322,355.429,958.754,354.907,975.867z"/>
	</g>
	<g>
		<path fill="#602A79" d="M376.431,976.342c4.646,34.563,11.332,60.921,13.605,87.187c1.375,0.047,0-0.047,5.357,0.096
			c0.9-28.352,1.375-54.994,5.594-87.423C403.171,959.181,374.108,959.418,376.431,976.342z"/>
	</g>
	<path fill="#1072BA" d="M317.597,910.918c7.441,10.004,33.518,41.437,34.939,69.597c12.23-2.562,39.775-6.163,50.633-6.212
		c-2.133-50.727-47.551-94.815-47.551-94.815L317.597,910.918z"/>
	<g>
		<path fill="#B7E1E9" d="M331.062,905.94c-2.135-2.276-4.836-0.143-3.129,2.038c4.977,6.306,12.041,29.395,9.055,62.248
			c2.465,2.652,6.258,6.73,6.258,6.73s4.932-4.645,6.543-6.447C347.938,933.438,338.362,913.715,331.062,905.94z"/>
	</g>
	<polygon fill="#B7E1E9" points="328.595,901.769 325.089,904.565 327.126,908.643 331.63,905.371 	"/>
	<g>
		<g>
			<path fill="#B7E1E9" d="M309.821,894.895c-1.137-2.939-0.664-6.211,2.086-8.961c3.129-3.129,5.264-3.318,9.576-0.426
				c2.324,1.563,13.133,6.778,16.072,8.816l-14.555,12.089c-1.564-1.469-3.604-3.033-5.451-4.504
				c-0.855-0.142-1.613-0.615-1.564-1.279c-0.617,0.096-1.139,0-1.375-0.664c-0.189-0.427-0.996-1.278-0.996-1.278l-1.518,1.517
				C312.052,900.252,310.96,897.834,309.821,894.895z"/>
		</g>
		<path fill="#1072BA" d="M311.671,894.895c0.236,0.426,0.76,0.567,1.186,0.379c0.428-0.237,0.568-0.759,0.379-1.187
			c-0.236-0.426-0.758-0.567-1.184-0.379C311.624,893.945,311.433,894.467,311.671,894.895z"/>
		<path fill="#1072BA" d="M313.095,893.471c0.234,0.428,0.758,0.569,1.184,0.381c0.428-0.237,0.57-0.76,0.381-1.187
			c-0.236-0.427-0.76-0.567-1.186-0.379C313.046,892.523,312.856,893.045,313.095,893.471z"/>
	</g>
	<path fill="#1072BA" d="M316.222,882.473c-1.232-1.09-3.365-0.616-4.172,0.854c-0.807,1.471-2.086,2.229-2.561,1.564
		c-0.096,1.754,1.754,2.985,3.318,2.561c1.518-0.379,3.98-2.893,4.408-3.414c0.428,0.807,3.65,2.135,4.314,1.471
		C321.39,883.422,318.022,880.766,316.222,882.473z"/>
	<g>
		<g>
			<path fill="#1072BA" d="M363.062,878.396c34.42,15.597,53.004,37.356,63.955,75.759l-5.594,1.849
				c-15.172-32.189-43.428-54.094-66.373-60.397C345.946,893.094,353.39,874.034,363.062,878.396z"/>
		</g>
		<g>
			<path fill="#B7E1E9" d="M422.181,956.099c0.475,0.236,0.664,0.854,0.428,1.326l-1.471,2.894
				c-0.236,0.475-0.854,0.664-1.328,0.426l0,0c-0.475-0.236-0.662-0.853-0.426-1.326l1.469-2.893
				C421.091,956.051,421.659,955.861,422.181,956.099z"/>
			<g>
				<path fill="#0F91D1" d="M416.728,961.836c0.381-0.664,0.996-1.139,1.756-1.375l12.848-3.793
					c1.471-0.427,2.939,0.332,3.367,1.707l1.801,6.162l-1.754,0.521l-1.803-6.162c-0.143-0.429-0.662-0.569-1.09-0.476
					l-12.848,3.792c-0.475,0.145-0.854,0.568-0.76,0.996l1.803,6.162l-1.756,0.521l-1.801-6.162
					C416.304,963.068,416.397,962.404,416.728,961.836L416.728,961.836z"/>
			</g>
			<g>
				<path fill="#0F91D1" d="M454.04,983.786c0.568,1.992-0.568,4.078-2.512,4.646l-32.809,9.623
					c-1.992,0.568-4.078-0.568-4.646-2.514l-6.258-21.335c-0.57-1.99,0.568-4.076,2.512-4.645l32.809-9.623
					c1.99-0.569,4.076,0.567,4.646,2.512L454.04,983.786z"/>
			</g>
			<g>
				<g>
					<path fill="#B7E1E9" d="M428.298,954.818c-0.189-0.521-0.76-0.807-1.281-0.663l-5.594,1.849
						c-0.52,0.189-0.807,0.759-0.664,1.28l0.949,2.892c0.189,0.521,0.758,0.807,1.279,0.664l5.594-1.85
						c0.521-0.189,0.807-0.758,0.664-1.279L428.298,954.818z"/>
					<g>
						<path fill="#B7E1E9" d="M423.603,959.607c-0.188-0.521,0.096-1.091,0.617-1.232c0.521-0.188,1.09,0.094,1.232,0.615
							l0.615,1.895c0.189,0.521-0.096,1.092-0.615,1.232l0,0c-0.521,0.191-1.092-0.094-1.232-0.615L423.603,959.607z"/>
						<path fill="#B7E1E9" d="M421.755,960.224c-0.189-0.521,0.096-1.092,0.617-1.233c0.52-0.189,1.09,0.096,1.23,0.617l0.617,1.895
							c0.189,0.521-0.096,1.09-0.617,1.232l0,0c-0.52,0.189-1.09-0.096-1.23-0.617L421.755,960.224z"/>
						<path fill="#B7E1E9" d="M426.116,957.711c0.521-0.188,1.09,0.096,1.232,0.616l0.615,1.896
							c0.189,0.521-0.094,1.091-0.615,1.231l0,0c-0.521,0.189-1.092-0.096-1.232-0.617l-0.615-1.895
							C425.31,958.469,425.595,957.9,426.116,957.711z"/>
						<path fill="#B7E1E9" d="M427.396,958.375c-0.189-0.521,0.096-1.091,0.617-1.232c0.521-0.189,1.09,0.095,1.232,0.615
							l0.615,1.944c0.189,0.521-0.096,1.091-0.615,1.231c-0.521,0.189-1.092-0.096-1.232-0.615L427.396,958.375z"/>
					</g>
				</g>
			</g>
		</g>
	</g>
	<g>
		<circle fill="#B7E1E9" cx="290.526" cy="917.555" r="13.843"/>
		<path fill="#1072BA" d="M290.526,931.968C290.526,931.968,290.479,931.968,290.526,931.968c-6.447,0-12.184-4.361-13.891-10.619
			c-1.043-3.697-0.521-7.585,1.375-10.951c1.895-3.365,4.979-5.736,8.723-6.779c1.232-0.332,2.561-0.521,3.84-0.521
			c6.447,0,12.186,4.36,13.893,10.618c2.086,7.682-2.418,15.646-10.1,17.731C293.087,931.826,291.806,931.968,290.526,931.968
			L290.526,931.968z M290.526,904.281c-1.186,0-2.371,0.143-3.508,0.474c-3.414,0.948-6.258,3.13-8.012,6.211
			c-1.756,3.081-2.184,6.639-1.281,10.052c1.564,5.735,6.828,9.719,12.754,9.719l0,0c1.186,0,2.369-0.144,3.508-0.475
			c7.064-1.943,11.188-9.244,9.244-16.262C301.716,908.311,296.452,904.281,290.526,904.281L290.526,904.281z"/>
	</g>
	<path fill="#1072BA" d="M281.093,914.095c-0.096,0-0.143,0-0.236-0.048c-0.285-0.142-0.428-0.474-0.332-0.758
		c0.996-2.371,2.844-4.268,5.119-5.404c0.285-0.143,0.664-0.048,0.807,0.283c0.143,0.285,0.047,0.664-0.285,0.808
		c-2.037,0.996-3.648,2.75-4.551,4.836C281.519,913.953,281.329,914.095,281.093,914.095L281.093,914.095z"/>
</g>
<g>
	<g>
		<circle fill="#B7E1E9" cx="395.725" cy="727.286" r="2.039"/>
		<circle fill="#B7E1E9" cx="387.855" cy="727.286" r="2.039"/>
		<circle fill="#B7E1E9" cx="388.186" cy="724.347" r="2.039"/>
		<circle fill="#B7E1E9" cx="390.652" cy="725.295" r="2.039"/>
		<circle fill="#B7E1E9" cx="393.686" cy="724.963" r="2.038"/>
		<circle fill="#B7E1E9" cx="392.217" cy="723.257" r="2.039"/>
		<circle fill="#B7E1E9" cx="390.225" cy="721.644" r="2.039"/>
		<circle fill="#B7E1E9" cx="394.16" cy="718.847" r="3.271"/>
		<circle fill="#B7E1E9" cx="400.797" cy="715.577" r="5.025"/>
		<circle fill="#B7E1E9" cx="410.326" cy="722.355" r="5.025"/>
		<circle fill="#B7E1E9" cx="410.326" cy="717.141" r="5.025"/>
		<circle fill="#B7E1E9" cx="408.668" cy="706.188" r="10.335"/>
		<circle fill="#B7E1E9" cx="419.191" cy="715.576" r="7.064"/>
		<circle fill="#B7E1E9" cx="422.748" cy="705.478" r="8.438"/>
		<circle fill="#B7E1E9" cx="443.229" cy="697.656" r="12.469"/>
		<circle fill="#B7E1E9" cx="436.592" cy="713.252" r="12.658"/>
		<circle fill="#B7E1E9" cx="397.574" cy="721.265" r="3.888"/>
		<circle fill="#B7E1E9" cx="396.34" cy="724.347" r="2.039"/>
		<circle fill="#B7E1E9" cx="398.807" cy="725.295" r="2.039"/>
		<circle fill="#B7E1E9" cx="401.793" cy="724.963" r="2.038"/>
		<circle fill="#B7E1E9" cx="400.371" cy="723.257" r="2.039"/>
		<circle fill="#B7E1E9" cx="401.793" cy="719.322" r="2.845"/>
		<circle fill="#B7E1E9" cx="403.783" cy="720.744" r="3.319"/>
	</g>
	<g>
		<polygon fill="#1072BA" points="405.064,727.097 401.176,727.097 397.289,727.097 396.482,771.092 401.176,771.092 
			405.869,771.092 		"/>
		<polygon fill="#1072BA" points="392.832,727.097 388.945,727.097 385.057,727.097 384.252,771.092 388.945,771.092 
			393.639,771.092 		"/>
		<g>
			<polygon fill="#1072BA" points="433.461,774.647 425.166,774.647 425.166,772.135 433.461,772.135 			"/>
			<polygon fill="#1072BA" points="429.338,773.937 420.092,773.937 420.092,772.846 429.338,772.846 			"/>
		</g>
		<g>
			<polygon fill="#1072BA" points="433.461,781.854 425.166,781.854 425.166,779.293 433.461,779.293 			"/>
			<polygon fill="#1072BA" points="429.338,781.095 420.092,781.095 420.092,780.052 429.338,780.052 			"/>
		</g>
		<g>
			<path fill="#1072BA" d="M340.162,771.092v20.907h81.779v-20.907H340.162z M390.936,782.518h-2.273v-2.845h2.273V782.518z
				 M390.936,777.444h-2.273V774.6h2.273V777.444z M395.535,782.518h-2.275v-2.845h2.275V782.518z M395.535,777.444h-2.275V774.6
				h2.275V777.444z M400.133,777.444h-2.275V774.6h2.275V777.444z M404.732,777.444h-2.275V774.6h2.275V777.444z"/>
			<polygon fill="#1072BA" points="356.803,761.041 356.803,771.092 365.146,771.092 			"/>
			<polygon fill="#1072BA" points="365.146,761.041 365.146,771.092 373.441,771.092 			"/>
			<polygon fill="#1072BA" points="373.441,761.041 373.441,771.092 381.787,771.092 			"/>
			<polygon fill="#1072BA" points="340.162,761.041 340.162,771.092 348.506,771.092 			"/>
			<polygon fill="#1072BA" points="348.506,761.041 348.506,771.092 356.803,771.092 			"/>
		</g>
		<path fill="#1072BA" d="M431.471,791.999h-4.268v-24.7c0-2.37-1.943-4.361-4.361-4.361h-0.615c-2.371,0-4.361,1.943-4.361,4.361
			v3.793h-4.268v-3.793c0-4.741,3.84-8.628,8.629-8.628h0.615c4.742,0,8.629,3.84,8.629,8.628v23.704V791.999z"/>
		<polygon fill="#1072BA" points="420.045,771.092 411.512,771.092 411.512,769.29 420.045,769.29 		"/>
	</g>
</g>
<g>
	<rect x="303.752" y="702.729" fill="#28296B" width="23.371" height="89.271"/>
	<rect x="306.881" y="700.215" fill="#1072BA" width="17.113" height="2.514"/>
	<rect x="309.771" y="696.564" fill="#1072BA" width="11.332" height="3.65"/>
	<rect x="311.717" y="694.62" fill="#1072BA" width="7.396" height="1.896"/>
	<g>
		<g>
			<rect x="306.881" y="709.176" fill="#B7E1E9" width="1.279" height="4.646"/>
			<rect x="306.881" y="719.463" fill="#B7E1E9" width="1.279" height="4.646"/>
			<rect x="306.881" y="729.799" fill="#B7E1E9" width="1.279" height="4.646"/>
			<rect x="306.881" y="740.086" fill="#B7E1E9" width="1.279" height="4.646"/>
			<rect x="306.881" y="750.421" fill="#B7E1E9" width="1.279" height="4.646"/>
			<rect x="306.881" y="760.709" fill="#B7E1E9" width="1.279" height="4.646"/>
			<rect x="306.881" y="770.997" fill="#B7E1E9" width="1.279" height="4.646"/>
			<rect x="306.881" y="781.332" fill="#B7E1E9" width="1.279" height="4.646"/>
		</g>
		<g>
			<rect x="309.156" y="709.176" fill="#B7E1E9" width="1.279" height="4.646"/>
			<rect x="309.156" y="719.463" fill="#B7E1E9" width="1.279" height="4.646"/>
			<rect x="309.156" y="729.799" fill="#B7E1E9" width="1.279" height="4.646"/>
			<rect x="309.156" y="740.086" fill="#B7E1E9" width="1.279" height="4.646"/>
			<rect x="309.156" y="750.421" fill="#B7E1E9" width="1.279" height="4.646"/>
			<rect x="309.156" y="760.709" fill="#B7E1E9" width="1.279" height="4.646"/>
			<rect x="309.156" y="770.997" fill="#B7E1E9" width="1.279" height="4.646"/>
			<rect x="309.156" y="781.332" fill="#B7E1E9" width="1.279" height="4.646"/>
		</g>
		<g>
			<rect x="313.66" y="709.176" fill="#B7E1E9" width="1.279" height="4.646"/>
			<rect x="313.66" y="719.463" fill="#B7E1E9" width="1.279" height="4.646"/>
			<rect x="313.66" y="729.799" fill="#B7E1E9" width="1.279" height="4.646"/>
			<rect x="313.66" y="740.086" fill="#B7E1E9" width="1.279" height="4.646"/>
			<rect x="313.66" y="750.421" fill="#B7E1E9" width="1.279" height="4.646"/>
			<rect x="313.66" y="760.709" fill="#B7E1E9" width="1.279" height="4.646"/>
			<rect x="313.66" y="770.997" fill="#B7E1E9" width="1.279" height="4.646"/>
			<rect x="313.66" y="781.332" fill="#B7E1E9" width="1.279" height="4.646"/>
		</g>
		<g>
			<rect x="315.936" y="709.176" fill="#B7E1E9" width="1.279" height="4.646"/>
			<rect x="315.936" y="719.463" fill="#B7E1E9" width="1.279" height="4.646"/>
			<rect x="315.936" y="729.799" fill="#B7E1E9" width="1.279" height="4.646"/>
			<rect x="315.936" y="740.086" fill="#B7E1E9" width="1.279" height="4.646"/>
			<rect x="315.936" y="750.421" fill="#B7E1E9" width="1.279" height="4.646"/>
			<rect x="315.936" y="760.709" fill="#B7E1E9" width="1.279" height="4.646"/>
			<rect x="315.936" y="770.997" fill="#B7E1E9" width="1.279" height="4.646"/>
			<rect x="315.936" y="781.332" fill="#B7E1E9" width="1.279" height="4.646"/>
		</g>
		<g>
			<rect x="320.439" y="709.176" fill="#B7E1E9" width="1.279" height="4.646"/>
			<rect x="320.439" y="719.463" fill="#B7E1E9" width="1.279" height="4.646"/>
			<rect x="320.439" y="729.799" fill="#B7E1E9" width="1.279" height="4.646"/>
			<rect x="320.439" y="740.086" fill="#B7E1E9" width="1.279" height="4.646"/>
			<rect x="320.439" y="750.421" fill="#B7E1E9" width="1.279" height="4.646"/>
			<rect x="320.439" y="760.709" fill="#B7E1E9" width="1.279" height="4.646"/>
			<rect x="320.439" y="770.997" fill="#B7E1E9" width="1.279" height="4.646"/>
			<rect x="320.439" y="781.332" fill="#B7E1E9" width="1.279" height="4.646"/>
		</g>
		<g>
			<rect x="322.715" y="709.176" fill="#B7E1E9" width="1.279" height="4.646"/>
			<rect x="322.715" y="719.463" fill="#B7E1E9" width="1.279" height="4.646"/>
			<rect x="322.715" y="729.799" fill="#B7E1E9" width="1.279" height="4.646"/>
			<rect x="322.715" y="740.086" fill="#B7E1E9" width="1.279" height="4.646"/>
			<rect x="322.715" y="750.421" fill="#B7E1E9" width="1.279" height="4.646"/>
			<rect x="322.715" y="760.709" fill="#B7E1E9" width="1.279" height="4.646"/>
			<rect x="322.715" y="770.997" fill="#B7E1E9" width="1.279" height="4.646"/>
			<rect x="322.715" y="781.332" fill="#B7E1E9" width="1.279" height="4.646"/>
		</g>
	</g>
	<polygon fill="#1072BA" points="318.211,694.62 315.414,687.558 312.617,694.62 	"/>
</g>
<g>
	<polygon fill="#1072BA" points="99.61,693.483 80.409,693.483 73.44,705.479 99.61,705.479 	"/>
	<polygon fill="#1072BA" points="99.61,693.483 80.409,693.483 73.44,705.479 92.688,705.479 	"/>
	<g>
		<polygon fill="#1072BA" points="99.61,693.483 99.325,693.483 92.356,705.479 92.688,705.479 		"/>
		<polygon fill="#1072BA" points="96.481,693.483 96.149,693.483 89.227,705.479 89.512,705.479 		"/>
		<polygon fill="#1072BA" points="93.304,693.483 93.02,693.483 86.051,705.479 86.383,705.479 		"/>
		<polygon fill="#1072BA" points="90.175,693.483 89.844,693.483 82.922,705.479 83.206,705.479 		"/>
		<polygon fill="#1072BA" points="86.999,693.483 86.715,693.483 79.746,705.479 80.077,705.479 		"/>
		<polygon fill="#1072BA" points="83.87,693.483 83.538,693.483 76.616,705.479 76.901,705.479 		"/>
		<polygon fill="#1072BA" points="80.694,693.483 80.409,693.483 73.44,705.479 73.772,705.479 		"/>
	</g>
	<g>
		<g>
			<rect x="71.639" y="713.016" fill="#1072BA" width="1.801" height="3.557"/>
		</g>
		<g>
			<rect x="71.639" y="720.602" fill="#1072BA" width="1.801" height="3.556"/>
		</g>
		<g>
			<rect x="71.639" y="728.187" fill="#1072BA" width="1.801" height="3.556"/>
		</g>
		<g>
			<rect x="71.639" y="735.725" fill="#1072BA" width="1.801" height="3.556"/>
		</g>
		<g>
			<rect x="71.639" y="743.31" fill="#1072BA" width="1.801" height="3.557"/>
		</g>
	</g>
	<g>
		<g>
			<rect x="71.639" y="750.848" fill="#1072BA" width="1.801" height="3.556"/>
		</g>
		<g>
			<rect x="71.639" y="758.434" fill="#1072BA" width="1.801" height="3.556"/>
		</g>
		<g>
			<rect x="71.639" y="765.972" fill="#1072BA" width="1.801" height="3.556"/>
		</g>
		<g>
			<rect x="71.639" y="773.557" fill="#1072BA" width="1.801" height="3.556"/>
		</g>
	</g>
	<path fill="#1072BA" d="M73.44,705.479V792h26.17v-86.521H73.44z M77.375,777.065h-1.802v-3.556h1.802V777.065z M77.375,769.527
		h-1.802v-3.556h1.802V769.527z M77.375,761.941h-1.802v-3.556h1.802V761.941z M77.375,754.403h-1.802v-3.556h1.802V754.403z
		 M77.375,746.818h-1.802v-3.556h1.802V746.818z M77.375,739.28h-1.802v-3.556h1.802V739.28z M77.375,731.695h-1.802v-3.556h1.802
		V731.695z M77.375,724.157h-1.802v-3.556h1.802V724.157z M77.375,716.572h-1.802v-3.557h1.802V716.572z M81.31,777.065h-1.802
		v-3.556h1.802V777.065z M81.31,769.527h-1.802v-3.556h1.802V769.527z M81.31,761.941h-1.802v-3.556h1.802V761.941z M81.31,754.403
		h-1.802v-3.556h1.802V754.403z M81.31,746.818h-1.802v-3.556h1.802V746.818z M81.31,739.28h-1.802v-3.556h1.802V739.28z
		 M81.31,731.695h-1.802v-3.556h1.802V731.695z M81.31,724.157h-1.802v-3.556h1.802V724.157z M81.31,716.572h-1.802v-3.557h1.802
		V716.572z M86.81,777.065h-1.802v-3.556h1.802V777.065z M86.81,731.695h-1.802v-3.556h1.802V731.695z M86.81,724.157h-1.802v-3.556
		h1.802V724.157z M86.81,716.572h-1.802v-3.557h1.802V716.572z M90.697,777.065h-1.801v-3.556h1.801V777.065z M90.697,724.157
		h-1.801v-3.556h1.801V724.157z M90.697,716.572h-1.801v-3.557h1.801V716.572z"/>
</g>
<g>
	<rect x="310.057" y="759.95" fill="#1072BA" width="23.277" height="32.05"/>
	<rect x="313.803" y="785.646" fill="#28296B" width="15.787" height="6.354"/>
	<g>
		<rect x="312.711" y="762.938" fill="#B7E1E9" width="2.467" height="17.873"/>
		<rect x="317.926" y="762.938" fill="#B7E1E9" width="2.467" height="17.873"/>
		<rect x="323.143" y="762.938" fill="#B7E1E9" width="2.465" height="17.873"/>
		<rect x="328.357" y="762.938" fill="#B7E1E9" width="2.465" height="17.873"/>
	</g>
</g>
<g>
	<rect x="2.232" y="726.338" fill="#1072BA" width="30.2" height="65.519"/>
	<rect x="2.232" y="725.342" fill="#28296B" width="30.2" height="0.996"/>
	<rect x="6.783" y="722.498" fill="#1072BA" width="21.097" height="2.844"/>
	<rect x="20.959" y="720.459" fill="#1072BA" width="4.931" height="2.039"/>
	<rect x="8.869" y="720.459" fill="#1072BA" width="4.931" height="2.039"/>
	<g>
		<g>
			<g>
				<rect x="27.169" y="731.41" fill="#B7E1E9" width="1.043" height="2.514"/>
				<rect x="28.971" y="731.41" fill="#B7E1E9" width="1.043" height="2.514"/>
			</g>
			<g>
				<rect x="22.618" y="731.41" fill="#B7E1E9" width="1.043" height="2.514"/>
				<rect x="24.42" y="731.41" fill="#B7E1E9" width="1.043" height="2.514"/>
			</g>
			<g>
				<rect x="18.067" y="731.41" fill="#B7E1E9" width="1.043" height="2.514"/>
				<rect x="19.868" y="731.41" fill="#B7E1E9" width="1.043" height="2.514"/>
			</g>
			<g>
				<rect x="13.515" y="731.41" fill="#B7E1E9" width="1.043" height="2.514"/>
				<rect x="15.317" y="731.41" fill="#B7E1E9" width="1.043" height="2.514"/>
			</g>
			<g>
				<rect x="8.965" y="731.41" fill="#B7E1E9" width="1.043" height="2.514"/>
				<rect x="10.766" y="731.41" fill="#B7E1E9" width="1.043" height="2.514"/>
			</g>
			<g>
				<rect x="4.413" y="731.41" fill="#B7E1E9" width="1.043" height="2.514"/>
				<rect x="6.215" y="731.41" fill="#B7E1E9" width="1.043" height="2.514"/>
			</g>
		</g>
		<g>
			<g>
				<rect x="27.169" y="728.14" fill="#B7E1E9" width="1.043" height="2.513"/>
				<rect x="28.971" y="728.14" fill="#B7E1E9" width="1.043" height="2.513"/>
			</g>
			<g>
				<rect x="22.618" y="728.14" fill="#B7E1E9" width="1.043" height="2.513"/>
				<rect x="24.42" y="728.14" fill="#B7E1E9" width="1.043" height="2.513"/>
			</g>
			<g>
				<rect x="18.067" y="728.14" fill="#B7E1E9" width="1.043" height="2.513"/>
				<rect x="19.868" y="728.14" fill="#B7E1E9" width="1.043" height="2.513"/>
			</g>
			<g>
				<rect x="13.515" y="728.14" fill="#B7E1E9" width="1.043" height="2.513"/>
				<rect x="15.317" y="728.14" fill="#B7E1E9" width="1.043" height="2.513"/>
			</g>
			<g>
				<rect x="8.965" y="728.14" fill="#B7E1E9" width="1.043" height="2.513"/>
				<rect x="10.766" y="728.14" fill="#B7E1E9" width="1.043" height="2.513"/>
			</g>
			<g>
				<rect x="4.413" y="728.14" fill="#B7E1E9" width="1.043" height="2.513"/>
				<rect x="6.215" y="728.14" fill="#B7E1E9" width="1.043" height="2.513"/>
			</g>
		</g>
		<rect x="1" y="735.108" fill="#28296B" width="32.617" height="0.711"/>
	</g>
	<g>
		<g>
			<g>
				<rect x="27.169" y="740.607" fill="#B7E1E9" width="1.043" height="2.513"/>
				<rect x="28.971" y="740.607" fill="#B7E1E9" width="1.043" height="2.513"/>
			</g>
			<g>
				<rect x="22.618" y="740.607" fill="#B7E1E9" width="1.043" height="2.513"/>
				<rect x="24.42" y="740.607" fill="#B7E1E9" width="1.043" height="2.513"/>
			</g>
			<g>
				<rect x="18.067" y="740.607" fill="#B7E1E9" width="1.043" height="2.513"/>
				<rect x="19.868" y="740.607" fill="#B7E1E9" width="1.043" height="2.513"/>
			</g>
			<g>
				<rect x="13.515" y="740.607" fill="#B7E1E9" width="1.043" height="2.513"/>
				<rect x="15.317" y="740.607" fill="#B7E1E9" width="1.043" height="2.513"/>
			</g>
			<g>
				<rect x="8.965" y="740.607" fill="#B7E1E9" width="1.043" height="2.513"/>
				<rect x="10.766" y="740.607" fill="#B7E1E9" width="1.043" height="2.513"/>
			</g>
			<g>
				<rect x="4.413" y="740.607" fill="#B7E1E9" width="1.043" height="2.513"/>
				<rect x="6.215" y="740.607" fill="#B7E1E9" width="1.043" height="2.513"/>
			</g>
		</g>
		<g>
			<g>
				<rect x="27.169" y="737.337" fill="#B7E1E9" width="1.043" height="2.513"/>
				<rect x="28.971" y="737.337" fill="#B7E1E9" width="1.043" height="2.513"/>
			</g>
			<g>
				<rect x="22.618" y="737.337" fill="#B7E1E9" width="1.043" height="2.513"/>
				<rect x="24.42" y="737.337" fill="#B7E1E9" width="1.043" height="2.513"/>
			</g>
			<g>
				<rect x="18.067" y="737.337" fill="#B7E1E9" width="1.043" height="2.513"/>
				<rect x="19.868" y="737.337" fill="#B7E1E9" width="1.043" height="2.513"/>
			</g>
			<g>
				<rect x="13.515" y="737.337" fill="#B7E1E9" width="1.043" height="2.513"/>
				<rect x="15.317" y="737.337" fill="#B7E1E9" width="1.043" height="2.513"/>
			</g>
			<g>
				<rect x="8.965" y="737.337" fill="#B7E1E9" width="1.043" height="2.513"/>
				<rect x="10.766" y="737.337" fill="#B7E1E9" width="1.043" height="2.513"/>
			</g>
			<g>
				<rect x="4.413" y="737.337" fill="#B7E1E9" width="1.043" height="2.513"/>
				<rect x="6.215" y="737.337" fill="#B7E1E9" width="1.043" height="2.513"/>
			</g>
		</g>
		<rect x="1" y="744.306" fill="#28296B" width="32.617" height="0.711"/>
	</g>
	<g>
		<g>
			<g>
				<rect x="27.169" y="749.805" fill="#B7E1E9" width="1.043" height="2.513"/>
				<rect x="28.971" y="749.805" fill="#B7E1E9" width="1.043" height="2.513"/>
			</g>
			<g>
				<rect x="22.618" y="749.805" fill="#B7E1E9" width="1.043" height="2.513"/>
				<rect x="24.42" y="749.805" fill="#B7E1E9" width="1.043" height="2.513"/>
			</g>
			<g>
				<rect x="18.067" y="749.805" fill="#B7E1E9" width="1.043" height="2.513"/>
				<rect x="19.868" y="749.805" fill="#B7E1E9" width="1.043" height="2.513"/>
			</g>
			<g>
				<rect x="13.515" y="749.805" fill="#B7E1E9" width="1.043" height="2.513"/>
				<rect x="15.317" y="749.805" fill="#B7E1E9" width="1.043" height="2.513"/>
			</g>
			<g>
				<rect x="8.965" y="749.805" fill="#B7E1E9" width="1.043" height="2.513"/>
				<rect x="10.766" y="749.805" fill="#B7E1E9" width="1.043" height="2.513"/>
			</g>
			<g>
				<rect x="4.413" y="749.805" fill="#B7E1E9" width="1.043" height="2.513"/>
				<rect x="6.215" y="749.805" fill="#B7E1E9" width="1.043" height="2.513"/>
			</g>
		</g>
		<g>
			<g>
				<rect x="27.169" y="746.534" fill="#B7E1E9" width="1.043" height="2.514"/>
				<rect x="28.971" y="746.534" fill="#B7E1E9" width="1.043" height="2.514"/>
			</g>
			<g>
				<rect x="22.618" y="746.534" fill="#B7E1E9" width="1.043" height="2.514"/>
				<rect x="24.42" y="746.534" fill="#B7E1E9" width="1.043" height="2.514"/>
			</g>
			<g>
				<rect x="18.067" y="746.534" fill="#B7E1E9" width="1.043" height="2.514"/>
				<rect x="19.868" y="746.534" fill="#B7E1E9" width="1.043" height="2.514"/>
			</g>
			<g>
				<rect x="13.515" y="746.534" fill="#B7E1E9" width="1.043" height="2.514"/>
				<rect x="15.317" y="746.534" fill="#B7E1E9" width="1.043" height="2.514"/>
			</g>
			<g>
				<rect x="8.965" y="746.534" fill="#B7E1E9" width="1.043" height="2.514"/>
				<rect x="10.766" y="746.534" fill="#B7E1E9" width="1.043" height="2.514"/>
			</g>
			<g>
				<rect x="4.413" y="746.534" fill="#B7E1E9" width="1.043" height="2.514"/>
				<rect x="6.215" y="746.534" fill="#B7E1E9" width="1.043" height="2.514"/>
			</g>
		</g>
		<rect x="1" y="753.503" fill="#28296B" width="32.617" height="0.711"/>
	</g>
	<g>
		<g>
			<g>
				<rect x="27.169" y="759.002" fill="#B7E1E9" width="1.043" height="2.513"/>
				<rect x="28.971" y="759.002" fill="#B7E1E9" width="1.043" height="2.513"/>
			</g>
			<g>
				<rect x="22.618" y="759.002" fill="#B7E1E9" width="1.043" height="2.513"/>
				<rect x="24.42" y="759.002" fill="#B7E1E9" width="1.043" height="2.513"/>
			</g>
			<g>
				<rect x="18.067" y="759.002" fill="#B7E1E9" width="1.043" height="2.513"/>
				<rect x="19.868" y="759.002" fill="#B7E1E9" width="1.043" height="2.513"/>
			</g>
			<g>
				<rect x="13.515" y="759.002" fill="#B7E1E9" width="1.043" height="2.513"/>
				<rect x="15.317" y="759.002" fill="#B7E1E9" width="1.043" height="2.513"/>
			</g>
			<g>
				<rect x="8.965" y="759.002" fill="#B7E1E9" width="1.043" height="2.513"/>
				<rect x="10.766" y="759.002" fill="#B7E1E9" width="1.043" height="2.513"/>
			</g>
			<g>
				<rect x="4.413" y="759.002" fill="#B7E1E9" width="1.043" height="2.513"/>
				<rect x="6.215" y="759.002" fill="#B7E1E9" width="1.043" height="2.513"/>
			</g>
		</g>
		<g>
			<g>
				<rect x="27.169" y="755.731" fill="#B7E1E9" width="1.043" height="2.513"/>
				<rect x="28.971" y="755.731" fill="#B7E1E9" width="1.043" height="2.513"/>
			</g>
			<g>
				<rect x="22.618" y="755.731" fill="#B7E1E9" width="1.043" height="2.513"/>
				<rect x="24.42" y="755.731" fill="#B7E1E9" width="1.043" height="2.513"/>
			</g>
			<g>
				<rect x="18.067" y="755.731" fill="#B7E1E9" width="1.043" height="2.513"/>
				<rect x="19.868" y="755.731" fill="#B7E1E9" width="1.043" height="2.513"/>
			</g>
			<g>
				<rect x="13.515" y="755.731" fill="#B7E1E9" width="1.043" height="2.513"/>
				<rect x="15.317" y="755.731" fill="#B7E1E9" width="1.043" height="2.513"/>
			</g>
			<g>
				<rect x="8.965" y="755.731" fill="#B7E1E9" width="1.043" height="2.513"/>
				<rect x="10.766" y="755.731" fill="#B7E1E9" width="1.043" height="2.513"/>
			</g>
			<g>
				<rect x="4.413" y="755.731" fill="#B7E1E9" width="1.043" height="2.513"/>
				<rect x="6.215" y="755.731" fill="#B7E1E9" width="1.043" height="2.513"/>
			</g>
		</g>
		<rect x="1" y="762.7" fill="#28296B" width="32.617" height="0.711"/>
	</g>
	<g>
		<g>
			<g>
				<rect x="27.169" y="768.247" fill="#B7E1E9" width="1.043" height="2.513"/>
				<rect x="28.971" y="768.247" fill="#B7E1E9" width="1.043" height="2.513"/>
			</g>
			<g>
				<rect x="22.618" y="768.247" fill="#B7E1E9" width="1.043" height="2.513"/>
				<rect x="24.42" y="768.247" fill="#B7E1E9" width="1.043" height="2.513"/>
			</g>
			<g>
				<rect x="18.067" y="768.247" fill="#B7E1E9" width="1.043" height="2.513"/>
				<rect x="19.868" y="768.247" fill="#B7E1E9" width="1.043" height="2.513"/>
			</g>
			<g>
				<rect x="13.515" y="768.247" fill="#B7E1E9" width="1.043" height="2.513"/>
				<rect x="15.317" y="768.247" fill="#B7E1E9" width="1.043" height="2.513"/>
			</g>
			<g>
				<rect x="8.965" y="768.247" fill="#B7E1E9" width="1.043" height="2.513"/>
				<rect x="10.766" y="768.247" fill="#B7E1E9" width="1.043" height="2.513"/>
			</g>
			<g>
				<rect x="4.413" y="768.247" fill="#B7E1E9" width="1.043" height="2.513"/>
				<rect x="6.215" y="768.247" fill="#B7E1E9" width="1.043" height="2.513"/>
			</g>
		</g>
		<g>
			<g>
				<rect x="27.169" y="764.929" fill="#B7E1E9" width="1.043" height="2.513"/>
				<rect x="28.971" y="764.929" fill="#B7E1E9" width="1.043" height="2.513"/>
			</g>
			<g>
				<rect x="22.618" y="764.929" fill="#B7E1E9" width="1.043" height="2.513"/>
				<rect x="24.42" y="764.929" fill="#B7E1E9" width="1.043" height="2.513"/>
			</g>
			<g>
				<rect x="18.067" y="764.929" fill="#B7E1E9" width="1.043" height="2.513"/>
				<rect x="19.868" y="764.929" fill="#B7E1E9" width="1.043" height="2.513"/>
			</g>
			<g>
				<rect x="13.515" y="764.929" fill="#B7E1E9" width="1.043" height="2.513"/>
				<rect x="15.317" y="764.929" fill="#B7E1E9" width="1.043" height="2.513"/>
			</g>
			<g>
				<rect x="8.965" y="764.929" fill="#B7E1E9" width="1.043" height="2.513"/>
				<rect x="10.766" y="764.929" fill="#B7E1E9" width="1.043" height="2.513"/>
			</g>
			<g>
				<rect x="4.413" y="764.929" fill="#B7E1E9" width="1.043" height="2.513"/>
				<rect x="6.215" y="764.929" fill="#B7E1E9" width="1.043" height="2.513"/>
			</g>
		</g>
		<rect x="1" y="771.897" fill="#28296B" width="32.617" height="0.711"/>
	</g>
	<g>
		<g>
			<g>
				<rect x="27.169" y="777.444" fill="#B7E1E9" width="1.043" height="2.514"/>
				<rect x="28.971" y="777.444" fill="#B7E1E9" width="1.043" height="2.514"/>
			</g>
			<g>
				<rect x="22.618" y="777.444" fill="#B7E1E9" width="1.043" height="2.514"/>
				<rect x="24.42" y="777.444" fill="#B7E1E9" width="1.043" height="2.514"/>
			</g>
			<g>
				<rect x="18.067" y="777.444" fill="#B7E1E9" width="1.043" height="2.514"/>
				<rect x="19.868" y="777.444" fill="#B7E1E9" width="1.043" height="2.514"/>
			</g>
			<g>
				<rect x="13.515" y="777.444" fill="#B7E1E9" width="1.043" height="2.514"/>
				<rect x="15.317" y="777.444" fill="#B7E1E9" width="1.043" height="2.514"/>
			</g>
			<g>
				<rect x="8.965" y="777.444" fill="#B7E1E9" width="1.043" height="2.514"/>
				<rect x="10.766" y="777.444" fill="#B7E1E9" width="1.043" height="2.514"/>
			</g>
			<g>
				<rect x="4.413" y="777.444" fill="#B7E1E9" width="1.043" height="2.514"/>
				<rect x="6.215" y="777.444" fill="#B7E1E9" width="1.043" height="2.514"/>
			</g>
		</g>
		<g>
			<g>
				<rect x="27.169" y="774.126" fill="#B7E1E9" width="1.043" height="2.513"/>
				<rect x="28.971" y="774.126" fill="#B7E1E9" width="1.043" height="2.513"/>
			</g>
			<g>
				<rect x="22.618" y="774.126" fill="#B7E1E9" width="1.043" height="2.513"/>
				<rect x="24.42" y="774.126" fill="#B7E1E9" width="1.043" height="2.513"/>
			</g>
			<g>
				<rect x="18.067" y="774.126" fill="#B7E1E9" width="1.043" height="2.513"/>
				<rect x="19.868" y="774.126" fill="#B7E1E9" width="1.043" height="2.513"/>
			</g>
			<g>
				<rect x="13.515" y="774.126" fill="#B7E1E9" width="1.043" height="2.513"/>
				<rect x="15.317" y="774.126" fill="#B7E1E9" width="1.043" height="2.513"/>
			</g>
			<g>
				<rect x="8.965" y="774.126" fill="#B7E1E9" width="1.043" height="2.513"/>
				<rect x="10.766" y="774.126" fill="#B7E1E9" width="1.043" height="2.513"/>
			</g>
			<g>
				<rect x="4.413" y="774.126" fill="#B7E1E9" width="1.043" height="2.513"/>
				<rect x="6.215" y="774.126" fill="#B7E1E9" width="1.043" height="2.513"/>
			</g>
		</g>
		<rect x="1" y="781.095" fill="#28296B" width="32.617" height="0.711"/>
	</g>
	<g>
		<g>
			<g>
				<rect x="27.169" y="783.561" fill="#B7E1E9" width="1.043" height="2.513"/>
				<rect x="28.971" y="783.561" fill="#B7E1E9" width="1.043" height="2.513"/>
			</g>
			<g>
				<rect x="22.618" y="783.561" fill="#B7E1E9" width="1.043" height="2.513"/>
				<rect x="24.42" y="783.561" fill="#B7E1E9" width="1.043" height="2.513"/>
			</g>
			<g>
				<rect x="18.067" y="783.561" fill="#B7E1E9" width="1.043" height="2.513"/>
				<rect x="19.868" y="783.561" fill="#B7E1E9" width="1.043" height="2.513"/>
			</g>
			<g>
				<rect x="13.515" y="783.561" fill="#B7E1E9" width="1.043" height="2.513"/>
				<rect x="15.317" y="783.561" fill="#B7E1E9" width="1.043" height="2.513"/>
			</g>
			<g>
				<rect x="8.965" y="783.561" fill="#B7E1E9" width="1.043" height="2.513"/>
				<path fill="#1072BA" d="M22.618,791.856h2.892v-3.317c0-0.807-0.664-1.423-1.422-1.423c-0.806,0-1.422,0.663-1.422,1.423v3.317
					H22.618z"/>
				<path fill="#1072BA" d="M18.067,791.856h2.892v-3.317c0-0.807-0.664-1.423-1.422-1.423c-0.806,0-1.422,0.663-1.422,1.423v3.317
					H18.067z"/>
				<path fill="#1072BA" d="M13.515,791.856h2.892v-3.317c0-0.807-0.664-1.423-1.422-1.423c-0.806,0-1.422,0.663-1.422,1.423v3.317
					H13.515z"/>
				<path fill="#1072BA" d="M8.965,791.856h2.892v-3.317c0-0.807-0.664-1.423-1.422-1.423c-0.806,0-1.422,0.663-1.422,1.423v3.317
					H8.965z"/>
				<rect x="10.766" y="783.561" fill="#B7E1E9" width="1.043" height="2.513"/>
			</g>
			<g>
				<rect x="4.413" y="783.561" fill="#B7E1E9" width="1.043" height="2.513"/>
				<rect x="6.215" y="783.561" fill="#B7E1E9" width="1.043" height="2.513"/>
			</g>
		</g>
	</g>
	<g>
		<g>
			<g>
				<rect x="27.169" y="787.068" fill="#B7E1E9" width="1.043" height="2.514"/>
				<rect x="28.971" y="787.068" fill="#B7E1E9" width="1.043" height="2.514"/>
			</g>
			<g>
				<rect x="4.413" y="787.068" fill="#B7E1E9" width="1.043" height="2.514"/>
				<rect x="6.215" y="787.068" fill="#B7E1E9" width="1.043" height="2.514"/>
			</g>
		</g>
	</g>
</g>
<g>
	<rect x="558.717" y="733.165" fill="#1072BA" width="34.418" height="58.834"/>
	<rect x="563.979" y="727.808" fill="#1072BA" width="23.848" height="5.404"/>
	<g>
		<rect x="586.119" y="738.189" fill="#B7E1E9" width="2.652" height="5.073"/>
		<rect x="580.477" y="738.189" fill="#B7E1E9" width="2.654" height="5.073"/>
		<rect x="574.834" y="738.189" fill="#B7E1E9" width="2.656" height="5.073"/>
		<rect x="569.146" y="738.189" fill="#B7E1E9" width="2.654" height="5.073"/>
		<rect x="563.504" y="738.189" fill="#56B8CC" width="2.654" height="5.073"/>
	</g>
	<g>
		<rect x="586.119" y="747.435" fill="#B7E1E9" width="2.652" height="5.073"/>
		<rect x="580.477" y="747.435" fill="#56B8CC" width="2.654" height="5.073"/>
		<rect x="574.834" y="747.435" fill="#B7E1E9" width="2.656" height="5.073"/>
		<rect x="569.146" y="747.435" fill="#B7E1E9" width="2.654" height="5.073"/>
		<rect x="563.504" y="747.435" fill="#B7E1E9" width="2.654" height="5.073"/>
	</g>
	<g>
		<rect x="586.119" y="756.727" fill="#B7E1E9" width="2.652" height="5.073"/>
		<rect x="580.477" y="756.727" fill="#B7E1E9" width="2.654" height="5.073"/>
		<rect x="574.834" y="756.727" fill="#56B8CC" width="2.656" height="5.073"/>
		<rect x="569.146" y="756.727" fill="#B7E1E9" width="2.654" height="5.073"/>
		<rect x="563.504" y="756.727" fill="#B7E1E9" width="2.654" height="5.073"/>
	</g>
	<g>
		<rect x="586.119" y="766.019" fill="#B7E1E9" width="2.652" height="5.073"/>
		<rect x="580.477" y="766.019" fill="#56B8CC" width="2.654" height="5.073"/>
		<rect x="574.834" y="766.019" fill="#B7E1E9" width="2.656" height="5.073"/>
		<rect x="569.146" y="766.019" fill="#56B8CC" width="2.654" height="5.073"/>
		<rect x="563.504" y="766.019" fill="#B7E1E9" width="2.654" height="5.073"/>
	</g>
	<g>
		<rect x="586.119" y="775.264" fill="#56B8CC" width="2.652" height="5.072"/>
		<rect x="580.477" y="775.264" fill="#B7E1E9" width="2.654" height="5.072"/>
		<rect x="574.834" y="775.264" fill="#B7E1E9" width="2.656" height="5.072"/>
		<rect x="569.146" y="775.264" fill="#B7E1E9" width="2.654" height="5.072"/>
		<rect x="563.504" y="775.264" fill="#B7E1E9" width="2.654" height="5.072"/>
	</g>
	<g>
		<rect x="563.504" y="784.65" fill="#28296B" width="25.27" height="7.35"/>
	</g>
</g>
<g>
	<polygon fill="#1072BA" points="258.666,719.084 268.764,719.084 276.444,732.358 258.666,732.358 	"/>
	<polygon fill="#1072BA" points="258.666,719.084 268.764,719.084 276.444,732.358 266.346,732.358 	"/>
	<g>
		<g>
			<rect x="276.444" y="740.702" fill="#1072BA" width="1.991" height="3.889"/>
		</g>
		<g>
			<rect x="276.444" y="749.047" fill="#1072BA" width="1.991" height="3.887"/>
		</g>
		<g>
			<rect x="276.444" y="757.391" fill="#1072BA" width="1.991" height="3.888"/>
		</g>
		<g>
			<rect x="276.444" y="765.734" fill="#1072BA" width="1.991" height="3.889"/>
		</g>
		<g>
			<rect x="276.444" y="774.079" fill="#1072BA" width="1.991" height="3.888"/>
		</g>
	</g>
	<path fill="#1072BA" d="M258.666,732.358V792h17.778v-59.642H258.666z M269.76,786.31h-1.991v-3.888h1.991V786.31z M269.76,777.966
		h-1.991v-3.889h1.991V777.966z M269.76,769.622h-1.991v-3.889h1.991V769.622z M269.76,761.278h-1.991v-3.888h1.991V761.278z
		 M269.76,752.934h-1.991v-3.887h1.991V752.934z M269.76,744.59h-1.991v-3.889h1.991V744.59z M274.074,786.31h-1.991v-3.888h1.991
		V786.31z M274.074,777.966h-1.991v-3.889h1.991V777.966z M274.074,769.622h-1.991v-3.889h1.991V769.622z M274.074,761.278h-1.991
		v-3.888h1.991V761.278z M274.074,752.934h-1.991v-3.887h1.991V752.934z M274.074,744.59h-1.991v-3.889h1.991V744.59z"/>
</g>
<path fill="#1072BA" d="M38.784,763.601v28.398h27.782v-28.398H38.784z M47.555,780.811h-2.56v-2.323h2.56V780.811z M47.555,773.083
	h-2.56v-2.323h2.56V773.083z M52.011,780.811h-2.56v-2.323h2.56V780.811z M52.011,773.083h-2.56v-2.323h2.56V773.083z
	 M56.468,780.811h-2.56v-2.323h2.56V780.811z M60.877,780.811h-2.56v-2.323h2.56V780.811z M60.877,773.083h-2.56v-2.323h2.56
	V773.083z"/>
<path fill="#1072BA" d="M229.889,775.975v16.024h18.442v-16.024H229.889z M233.587,781.284h-1.896v-2.369h1.896V781.284z
	 M236.906,781.284h-1.896v-2.369h1.896V781.284z M240.177,781.284h-1.896v-2.369h1.896V781.284z M246.767,785.22h-1.896v-2.371
	h1.896V785.22z M246.767,781.284h-1.896v-2.369h1.896V781.284z"/>
<g>
	<rect x="186.51" y="717.235" fill="#1072BA" width="51.249" height="1.802"/>
	<polygon fill="#1072BA" points="186.51,719.037 186.51,723.541 194.427,723.541 194.427,721.739 229.889,721.739 229.889,723.541 
		237.759,723.541 237.759,719.037 	"/>
	<path fill="#1072BA" d="M186.51,718.136v73.863h51.249v-73.863H186.51z M193.384,733.829h-1.517v-2.986h1.517V733.829z
		 M193.384,727.428h-1.517v-3.034h1.517V727.428z M196.751,746.724h-1.517v-3.034h1.517V746.724z M196.751,733.829h-1.517v-2.986
		h1.517V733.829z M196.751,727.428h-1.517v-3.034h1.517V727.428z M201.444,740.276h-1.517v-3.034h1.517V740.276z M201.444,727.428
		h-1.517v-3.034h1.517V727.428z M204.762,733.829h-1.517v-2.986h1.517V733.829z M204.762,727.428h-1.517v-3.034h1.517V727.428z
		 M221.214,753.171h-1.517v-3.034h1.517V753.171z M221.214,746.724h-1.517v-3.034h1.517V746.724z M221.214,733.829h-1.517v-2.986
		h1.517V733.829z M221.214,727.428h-1.517v-3.034h1.517V727.428z M224.532,759.619h-1.517v-3.033h1.517V759.619z M224.532,753.171
		h-1.517v-3.034h1.517V753.171z M224.532,746.724h-1.517v-3.034h1.517V746.724z M224.532,740.276h-1.517v-3.034h1.517V740.276z
		 M224.532,733.829h-1.517v-2.986h1.517V733.829z M224.532,727.428h-1.517v-3.034h1.517V727.428z M229.225,766.066h-1.517v-3.034
		h1.517V766.066z M229.225,759.619h-1.517v-3.033h1.517V759.619z M229.225,746.724h-1.517v-3.034h1.517V746.724z M229.225,740.276
		h-1.517v-3.034h1.517V740.276z M229.225,733.829h-1.517v-2.986h1.517V733.829z M229.225,727.428h-1.517v-3.034h1.517V727.428z
		 M232.544,766.066h-1.517v-3.034h1.517V766.066z M232.544,759.619h-1.517v-3.033h1.517V759.619z M232.544,753.171h-1.517v-3.034
		h1.517V753.171z M232.544,746.724h-1.517v-3.034h1.517V746.724z M232.544,740.276h-1.517v-3.034h1.517V740.276z M232.544,733.829
		h-1.517v-2.986h1.517V733.829z M232.544,727.428h-1.517v-3.034h1.517V727.428z"/>
	<g>
		<g>
			<rect x="189.829" y="712.684" fill="#1072BA" width="12.421" height="4.553"/>
			<g>
				<rect x="190.966" y="712.684" fill="#80C9D8" width="1.138" height="2.229"/>
				<rect x="193.242" y="712.684" fill="#80C9D8" width="1.138" height="2.229"/>
				<rect x="195.518" y="712.684" fill="#80C9D8" width="1.138" height="2.229"/>
				<rect x="197.746" y="712.684" fill="#80C9D8" width="1.138" height="2.229"/>
				<rect x="200.022" y="712.684" fill="#80C9D8" width="1.138" height="2.229"/>
			</g>
			<rect x="189.829" y="710.978" fill="#1072BA" width="12.421" height="1.706"/>
		</g>
		<rect x="192.626" y="702.822" fill="#1072BA" width="0.237" height="8.154"/>
		<rect x="195.85" y="705.715" fill="#1072BA" width="0.237" height="5.263"/>
	</g>
</g>
<g>
	<rect x="513.678" y="753.788" fill="#1072BA" width="35.938" height="32.616"/>
	<g>
		<g>
			<rect x="509.27" y="786.452" fill="#1072BA" width="44.754" height="2.798"/>
		</g>
		<g>
			<rect x="506.803" y="789.202" fill="#1072BA" width="49.637" height="2.798"/>
		</g>
		<g>
			<g>
				<g>
					<g>
						<path fill="#FFFFFF" d="M520.41,784.224h4.455l-0.711-27.924h-3.033L520.41,784.224L520.41,784.224z"/>
					</g>
					<path fill="#1072BA" d="M526.24,785.314c0,0.616-0.475,1.09-1.09,1.09h-4.979c-0.617,0-1.09-0.474-1.09-1.09l0,0
						c0-0.616,0.473-1.091,1.09-1.091h4.979C525.768,784.224,526.24,784.745,526.24,785.314L526.24,785.314z"/>
				</g>
				<g>
					<g>
						<path fill="#FFFFFF" d="M511.449,784.224h4.457l-0.711-27.924h-3.035L511.449,784.224L511.449,784.224z"/>
					</g>
					<path fill="#1072BA" d="M517.281,785.314c0,0.616-0.477,1.09-1.092,1.09h-4.979c-0.615,0-1.09-0.474-1.09-1.09l0,0
						c0-0.616,0.475-1.091,1.09-1.091h4.979C516.76,784.224,517.281,784.745,517.281,785.314L517.281,785.314z"/>
				</g>
				<g>
					<g>
						<path fill="#FFFFFF" d="M529.418,784.224h4.455l-0.711-27.924h-3.033L529.418,784.224L529.418,784.224z"/>
					</g>
					<path fill="#1072BA" d="M535.201,785.314c0,0.616-0.475,1.09-1.09,1.09h-4.98c-0.615,0-1.09-0.474-1.09-1.09
						s0.475-1.091,1.09-1.091h4.98C534.727,784.224,535.201,784.745,535.201,785.314z"/>
				</g>
			</g>
			<g>
				<g>
					<g>
						<path fill="#FFFFFF" d="M538.377,784.224h4.457l-0.711-27.924h-3.035L538.377,784.224L538.377,784.224z"/>
					</g>
					<path fill="#1072BA" d="M544.209,785.314c0,0.616-0.475,1.09-1.09,1.09h-4.98c-0.615,0-1.09-0.474-1.09-1.09
						s0.475-1.091,1.09-1.091h4.98C543.736,784.224,544.209,784.745,544.209,785.314z"/>
				</g>
				<g>
					<g>
						<path fill="#FFFFFF" d="M547.385,784.224h4.457l-0.711-27.924h-3.035L547.385,784.224L547.385,784.224z"/>
					</g>
					<path fill="#1072BA" d="M553.17,785.314c0,0.616-0.475,1.09-1.092,1.09H547.1c-0.617,0-1.09-0.474-1.09-1.09
						s0.473-1.091,1.09-1.091h4.979C552.695,784.224,553.17,784.745,553.17,785.314z"/>
				</g>
			</g>
		</g>
		<path fill="#1072BA" d="M554.307,753.788l-22.662-10.383l-22.66,10.383l0,0v2.513h45.322V753.788L554.307,753.788z
			 M531.645,752.603c-1.754,0-3.176-1.423-3.176-3.177s1.422-3.177,3.176-3.177c1.756,0,3.178,1.423,3.178,3.177
			S533.4,752.603,531.645,752.603z"/>
	</g>
</g>
<g>
	<g>
		<rect x="479.59" y="737.858" fill="#1072BA" width="21.477" height="54.142"/>
		<rect x="482.861" y="732.88" fill="#1072BA" width="14.887" height="4.979"/>
		<g>
			<rect x="482.293" y="785.22" fill="#28296B" width="15.787" height="6.779"/>
		</g>
	</g>
	<g>
		<g>
			<rect x="480.492" y="742.457" fill="#B7E1E9" width="5.877" height="2.465"/>
		</g>
		<g>
			<rect x="480.492" y="746.961" fill="#B7E1E9" width="5.877" height="2.465"/>
		</g>
		<g>
			<rect x="480.492" y="751.464" fill="#B7E1E9" width="5.877" height="2.466"/>
		</g>
		<g>
			<rect x="480.492" y="755.968" fill="#B7E1E9" width="5.877" height="2.466"/>
		</g>
		<g>
			<rect x="480.492" y="760.472" fill="#B7E1E9" width="5.877" height="2.466"/>
		</g>
	</g>
	<g>
		<g>
			<rect x="487.365" y="742.457" fill="#B7E1E9" width="5.879" height="2.465"/>
		</g>
		<g>
			<rect x="487.365" y="746.961" fill="#B7E1E9" width="5.879" height="2.465"/>
		</g>
		<g>
			<rect x="487.365" y="751.464" fill="#B7E1E9" width="5.879" height="2.466"/>
		</g>
		<g>
			<rect x="487.365" y="755.968" fill="#B7E1E9" width="5.879" height="2.466"/>
		</g>
		<g>
			<rect x="487.365" y="760.472" fill="#B7E1E9" width="5.879" height="2.466"/>
		</g>
	</g>
	<g>
		<g>
			<rect x="494.287" y="742.457" fill="#B7E1E9" width="5.879" height="2.465"/>
		</g>
		<g>
			<rect x="494.287" y="746.961" fill="#B7E1E9" width="5.879" height="2.465"/>
		</g>
		<g>
			<rect x="494.287" y="751.464" fill="#B7E1E9" width="5.879" height="2.466"/>
		</g>
		<g>
			<rect x="494.287" y="755.968" fill="#B7E1E9" width="5.879" height="2.466"/>
		</g>
		<g>
			<rect x="494.287" y="760.472" fill="#B7E1E9" width="5.879" height="2.466"/>
		</g>
	</g>
	<g>
		<g>
			<rect x="480.492" y="765.023" fill="#B7E1E9" width="5.877" height="2.465"/>
		</g>
		<g>
			<rect x="480.492" y="769.527" fill="#B7E1E9" width="5.877" height="2.465"/>
		</g>
		<g>
			<rect x="480.492" y="774.031" fill="#B7E1E9" width="5.877" height="2.466"/>
		</g>
		<g>
			<rect x="480.492" y="778.535" fill="#B7E1E9" width="5.877" height="2.466"/>
		</g>
	</g>
	<g>
		<g>
			<rect x="487.365" y="765.023" fill="#B7E1E9" width="5.879" height="2.465"/>
		</g>
		<g>
			<rect x="487.365" y="769.527" fill="#B7E1E9" width="5.879" height="2.465"/>
		</g>
		<g>
			<rect x="487.365" y="774.031" fill="#B7E1E9" width="5.879" height="2.466"/>
		</g>
		<g>
			<rect x="487.365" y="778.535" fill="#B7E1E9" width="5.879" height="2.466"/>
		</g>
	</g>
	<g>
		<g>
			<rect x="494.287" y="765.023" fill="#B7E1E9" width="5.879" height="2.465"/>
		</g>
		<g>
			<rect x="494.287" y="769.527" fill="#B7E1E9" width="5.879" height="2.465"/>
		</g>
		<g>
			<rect x="494.287" y="774.031" fill="#B7E1E9" width="5.879" height="2.466"/>
		</g>
		<g>
			<rect x="494.287" y="778.535" fill="#B7E1E9" width="5.879" height="2.466"/>
		</g>
	</g>
</g>
<path fill="#1072BA" d="M181.248,762.179v29.82h20.576v-29.82H181.248z M186.036,780.479h-2.655v-2.37h2.655V780.479z
	 M186.036,772.514h-2.655v-2.37h2.655V772.514z M190.588,780.479h-2.655v-2.37h2.655V780.479z M190.588,772.514h-2.655v-2.37h2.655
	V772.514z M195.138,780.479h-2.655v-2.37h2.655V780.479z M199.737,780.479h-2.655v-2.37h2.655V780.479z M199.737,772.514h-2.655
	v-2.37h2.655V772.514z"/>
<g>
	<rect x="39.922" y="665.323" fill="#B7E1E9" width="23.657" height="9.103"/>
	<circle fill="#B7E1E9" cx="57.985" cy="664.849" r="4.6"/>
	<circle fill="#B7E1E9" cx="47.46" cy="665.322" r="7.538"/>
	<circle fill="#B7E1E9" cx="63.532" cy="669.874" r="4.551"/>
	<circle fill="#B7E1E9" cx="39.922" cy="669.874" r="4.551"/>
</g>
<g>
	<rect x="321.529" y="700.357" fill="#B7E1E9" width="23.656" height="9.104"/>
	<circle fill="#B7E1E9" cx="339.592" cy="699.883" r="4.599"/>
	<circle fill="#B7E1E9" cx="329.02" cy="700.357" r="7.538"/>
	<circle fill="#B7E1E9" cx="345.139" cy="704.908" r="4.551"/>
	<circle fill="#B7E1E9" cx="321.529" cy="704.908" r="4.551"/>
</g>
<g>
	<g>
		<path fill="#1072BA" d="M280.996,754.214v37.785h17.92v-37.785H280.996z M289.244,769.053h-1.658v-3.366h1.658V769.053z
			 M289.244,761.563h-1.658v-3.366h1.658V761.563z M292.184,776.544h-1.658v-3.366h1.658V776.544z M292.184,769.053h-1.658v-3.366
			h1.658V769.053z M292.184,761.563h-1.658v-3.366h1.658V761.563z M295.076,776.544h-1.659v-3.366h1.659V776.544z M295.076,769.053
			h-1.659v-3.366h1.659V769.053z"/>
	</g>
	<g>
		<g>
			<circle fill="#1072BA" cx="292.374" cy="714.817" r="1.28"/>
			<polygon fill="#1072BA" points="291.9,718.752 292.896,718.752 292.896,714.817 291.9,714.817 			"/>
		</g>
		<g>
			<circle fill="#1072BA" cx="288.961" cy="711.974" r="1.28"/>
			<polygon fill="#1072BA" points="288.439,718.752 289.436,718.752 289.436,711.973 288.439,711.973 			"/>
		</g>
		<path fill="#1072BA" d="M286.875,718.752v35.462h12.042v-35.462H286.875z M291.189,725.152h-1.66v-3.366h1.66V725.152z
			 M294.128,736.53h-1.659v-3.364h1.659V736.53z M294.128,725.152h-1.659v-3.366h1.659V725.152z M297.02,736.53h-1.66v-3.364h1.66
			V736.53z"/>
	</g>
</g>
<g>
	<path fill="#B7E1E9" d="M166.124,785.409v4.361h5.926h8.107h5.879v-4.361l-5.926-0.475l-1.09-3.65h-9.055l-2.181,3.65
		L166.124,785.409z M178.83,784.935l-0.806-2.749h0.948l0.806,2.749H178.83z M173.71,782.138h3.84l0.806,2.75h-4.646V782.138z"/>
	<rect x="165.176" y="788.159" fill="#B7E1E9" width="21.855" height="1.611"/>
	<g>
		<g>
			<path fill="#1072BA" d="M169.775,787.306c-1.375,0-2.465,1.09-2.465,2.465h4.883C172.24,788.396,171.15,787.306,169.775,787.306z
				"/>
		</g>
		<g>
			<circle fill="#B7E1E9" cx="169.822" cy="789.771" r="2.181"/>
			<circle fill="#1072BA" cx="169.775" cy="789.771" r="1.043"/>
		</g>
	</g>
	<g>
		<g>
			<path fill="#1072BA" d="M181.2,787.306c-1.375,0-2.465,1.09-2.465,2.465h4.883C183.618,788.396,182.528,787.306,181.2,787.306z"
				/>
		</g>
		<g>
			<circle fill="#B7E1E9" cx="181.2" cy="789.771" r="2.181"/>
			<circle fill="#1072BA" cx="181.2" cy="789.771" r="1.043"/>
		</g>
	</g>
</g>
<g>
	<path fill="#B7E1E9" d="M365.43,784.935l-1.09-3.65h-9.813l-1.092,3.65l-6.115,0.475v4.361h15.219h5.926v-4.267L365.43,784.935z
		 M353.768,784.935l0.807-2.749h0.947l-0.805,2.749H353.768z M359.836,784.935h-4.693l0.807-2.749h3.889v2.749H359.836z
		 M360.264,784.935v-2.749h2.607l0.805,2.749H360.264z M364.104,784.935l-0.807-2.749h0.947l0.807,2.749H364.104z"/>
	<rect x="346.324" y="788.159" fill="#B7E1E9" width="22.805" height="1.611"/>
	<g>
		<g>
			<path fill="#1072BA" d="M351.539,787.306c-1.375,0-2.465,1.09-2.465,2.465h4.883
				C354.004,788.396,352.914,787.306,351.539,787.306z"/>
		</g>
		<g>
			<circle fill="#B7E1E9" cx="351.539" cy="789.771" r="2.181"/>
			<circle fill="#1072BA" cx="351.539" cy="789.771" r="1.043"/>
		</g>
	</g>
	<g>
		<g>
			<path fill="#1072BA" d="M364.197,787.306c-1.375,0-2.467,1.09-2.467,2.465h4.932
				C366.662,788.396,365.572,787.306,364.197,787.306z"/>
		</g>
		<g>
			<circle fill="#B7E1E9" cx="364.197" cy="789.771" r="2.181"/>
			<circle fill="#1072BA" cx="364.197" cy="789.771" r="1.043"/>
		</g>
	</g>
</g>
<g>
	<path fill="#B7E1E9" d="M588.395,777.16l-1.092,5.404l0,0l-0.854,0.711v6.448h25.838v-12.611h-23.895v0.048H588.395z
		 M587.635,782.612l0.807-4.077h0.947l-0.805,4.077H587.635z M593.703,782.612h-4.693l0.807-4.077h3.889v4.077H593.703z
		 M599.582,782.612h-4.693v-4.077h4.693V782.612z M604.893,782.612h-4.693v-4.077h4.693V782.612z M610.201,782.612h-4.693v-4.077
		h4.693V782.612z"/>
	<rect x="585.787" y="788.159" fill="#B7E1E9" width="27.26" height="1.611"/>
	<g>
		<g>
			<path fill="#1072BA" d="M590.953,787.306c-1.375,0-2.465,1.09-2.465,2.465h4.883
				C593.371,788.396,592.281,787.306,590.953,787.306z"/>
		</g>
		<g>
			<circle fill="#B7E1E9" cx="590.953" cy="789.771" r="2.181"/>
			<circle fill="#1072BA" cx="590.953" cy="789.771" r="1.043"/>
		</g>
	</g>
	<g>
		<g>
			<path fill="#1072BA" d="M607.453,787.306c-1.375,0-2.467,1.09-2.467,2.465h4.883
				C609.918,788.396,608.826,787.306,607.453,787.306z"/>
		</g>
		<g>
			<circle fill="#B7E1E9" cx="607.5" cy="789.771" r="2.181"/>
			<circle fill="#1072BA" cx="607.5" cy="789.771" r="1.043"/>
		</g>
	</g>
</g>
<g>
	<g>
		<rect x="50.352" y="774.458" fill="#B7E1E9" width="27.26" height="10.762"/>
	</g>
	<polygon fill="#B7E1E9" points="89.891,783.181 88.232,782.47 80.22,782.47 80.22,789.581 89.891,789.581 	"/>
	<rect x="79.034" y="787.969" fill="#B7E1E9" width="11.331" height="1.612"/>
	<rect x="49.404" y="786.452" fill="#B7E1E9" width="29.63" height="3.081"/>
	<polygon fill="#B7E1E9" points="87.141,777.112 88.232,782.47 87.9,782.47 87.094,778.487 86.051,778.487 86.857,782.47 
		86.525,782.47 85.719,778.487 81.879,778.487 81.879,782.47 80.22,782.47 80.22,777.112 	"/>
	<rect x="78.987" y="774.837" fill="#B7E1E9" width="1.233" height="13.273"/>
	<g>
		<g>
			<path fill="#1072BA" d="M86.193,786.879c-1.47,0-2.655,1.185-2.655,2.653h5.357C88.896,788.111,87.663,786.879,86.193,786.879z"
				/>
		</g>
		<g>
			<circle fill="#B7E1E9" cx="86.193" cy="789.581" r="2.37"/>
			<circle fill="#1072BA" cx="86.193" cy="789.581" r="1.138"/>
		</g>
	</g>
	<g>
		<g>
			<path fill="#1072BA" d="M58.459,786.879c-1.47,0-2.655,1.185-2.655,2.653h5.357C61.114,788.111,59.929,786.879,58.459,786.879z"
				/>
		</g>
		<g>
			<circle fill="#B7E1E9" cx="58.459" cy="789.581" r="2.37"/>
			<circle fill="#1072BA" cx="58.459" cy="789.581" r="1.138"/>
		</g>
	</g>
	<g>
		<g>
			<path fill="#1072BA" d="M65.191,786.879c-1.47,0-2.655,1.185-2.655,2.653h5.357C67.846,788.111,66.661,786.879,65.191,786.879z"
				/>
		</g>
		<g>
			<circle fill="#B7E1E9" cx="65.191" cy="789.581" r="2.37"/>
			<circle fill="#1072BA" cx="65.191" cy="789.581" r="1.138"/>
		</g>
	</g>
</g>
<g>
	<rect x="444.318" y="707.848" fill="#1072BA" width="24.131" height="54.142"/>
	<rect x="442.518" y="761.989" fill="#1072BA" width="27.781" height="30.011"/>
	<rect x="447.494" y="705.336" fill="#1072BA" width="17.73" height="2.465"/>
	<rect x="450.529" y="703.107" fill="#1072BA" width="1.85" height="2.229"/>
	<rect x="455.459" y="703.107" fill="#1072BA" width="1.85" height="2.229"/>
	<rect x="460.342" y="703.107" fill="#1072BA" width="1.85" height="2.229"/>
	<g>
		<rect x="447.494" y="712.447" fill="#B7E1E9" width="1.85" height="49.542"/>
		<rect x="451.477" y="712.447" fill="#B7E1E9" width="1.85" height="49.542"/>
		<rect x="455.459" y="712.447" fill="#B7E1E9" width="1.85" height="49.542"/>
		<rect x="459.395" y="712.447" fill="#B7E1E9" width="1.85" height="49.542"/>
		<rect x="463.377" y="712.447" fill="#B7E1E9" width="1.85" height="49.542"/>
	</g>
</g>
</svg>
