<svg xmlns="http://www.w3.org/2000/svg" height="412" width="388" xmlns:xlink="http://www.w3.org/1999/xlink" viewBox="0 0 388 412"><title>area-report-property-detective@3x</title><defs><path id="a" d="M0 .663v71.774h33.274V.663H0z"/><path id="c" d="M31.897 75.113V.22H.947v74.893z"/><path id="e" d="M0 412h387.25V0H0z"/></defs><g fill-rule="evenodd" fill="none"><path fill="#ECECEC" d="M70.54 300.79c-.133-.25-.26-.51-.387-.76.126.25.254.51.386.76zM42.592 326.09c.012.79.01 1.57-.003 2.35.01-.78.014-1.56.002-2.35M79.3 313.75c-.192-.24-.383-.47-.572-.7.19.23.38.46.572.7M76.637 310.37c-.177-.24-.354-.47-.528-.71.173.24.35.47.527.71M73.843 306.41c-.056-.09-.115-.17-.17-.26.055.09.114.17.17.26M71.52 302.61c-.135-.24-.265-.48-.398-.72.133.24.263.48.4.72M72.008 264.2c-.008-.22-.023-.44-.04-.66.017.22.032.44.04.66M75.32 308.56c-.15-.21-.302-.42-.45-.63.148.21.3.42.45.63M72.575 304.41c-.124-.2-.243-.41-.365-.62.122.21.24.42.365.62M80.34 314.99v-.01c-.082-.09-.163-.19-.245-.29.082.1.162.2.245.3M66.193 285.24c0-.25.004-.5.012-.75-.008.25-.013.5-.012.75M70.757 271.33l.098-.22c-.03.07-.066.15-.098.22M71.275 269.93c.03-.09.054-.19.082-.28-.028.09-.052.19-.082.28M70.154 272.6c.055-.1.107-.21.16-.31-.053.1-.105.21-.16.31M68.815 297.09c-.107-.26-.213-.51-.313-.77.1.26.206.51.313.77M68.233 276.04c.092-.19.17-.38.267-.57-.098.19-.175.38-.267.57M71.987 266.07c.012-.19.02-.38.026-.56-.007.18-.014.37-.026.56M71.762 267.93c.032-.18.062-.36.088-.54-.026.18-.056.36-.088.54M71.9 267c.023-.18.04-.36.058-.55-.017.19-.035.37-.057.55M67.44 277.94c.083-.23.158-.47.25-.7-.092.23-.167.47-.25.7M67.415 293.14c-.052-.17-.112-.35-.16-.52.048.17.108.35.16.52M66.8 290.77c-.03-.14-.05-.28-.078-.42.028.14.05.28.078.42M66.47 288.92c-.034-.22-.055-.44-.082-.67.027.23.048.45.08.67M68.08 295.18c-.086-.24-.174-.47-.255-.71.08.24.17.47.254.71M66.264 287.08c-.02-.25-.03-.49-.04-.73.01.24.02.48.04.73M66.865 279.8c.066-.26.124-.51.2-.77-.076.26-.134.51-.2.77M66.49 281.56c.04-.23.075-.47.122-.7-.047.23-.082.47-.12.7M66.264 283.4c.02-.25.04-.49.068-.74-.028.25-.048.49-.068.74M77.956 312.08c-.187-.24-.375-.47-.56-.71.185.24.372.47.56.71M42.09 317.89c-.083-.83-.177-1.67-.277-2.52.1.85.194 1.69.277 2.52M42.325 320.55c-.06-.77-.127-1.55-.204-2.33.078.78.146 1.56.205 2.33M42.59 326.03c-.013-.78-.04-1.57-.075-2.36.035.79.062 1.58.075 2.36M42.495 323.24c-.04-.81-.09-1.62-.15-2.43.06.81.11 1.62.15 2.43M41.772 315.04c-.102-.84-.21-1.67-.325-2.51.116.84.223 1.67.325 2.51M34.433 258.81c.007-.08.018-.15.025-.23-.007.08-.018.15-.025.23M42.488 331.2c.045-.75.073-1.52.09-2.29-.017.77-.045 1.54-.09 2.29M41.078 340.4c.15-.56.286-1.14.412-1.71-.126.57-.262 1.15-.412 1.71M40.87 341.11h.005c.05-.18.103-.35.15-.53-.047.18-.104.35-.154.53M41.577 338.26c.127-.61.243-1.23.345-1.86-.102.63-.218 1.25-.345 1.86M42.304 333.46c.07-.71.13-1.42.176-2.13-.045.71-.105 1.42-.176 2.13M41 309.47c-.275-1.77-.572-3.55-.884-5.34.312 1.79.61 3.57.883 5.34M41.98 336.06c.108-.71.2-1.42.278-2.15-.078.73-.17 1.44-.28 2.15M41.436 312.44c-.122-.87-.25-1.75-.386-2.64.135.89.264 1.77.386 2.64M34.876 273.78c-.02-.17-.04-.33-.058-.5.018.17.038.33.058.5M34.39 268.55l-.023-.33.023.33M40.072 303.88c-.734-4.17-1.546-8.36-2.33-12.51.784 4.15 1.596 8.34 2.33 12.51M34.263 266.05c-.007-.16-.01-.33-.015-.49.004.16.008.33.015.49M34.27 261.29l.02-.47-.02.47M34.218 263.43v-.04.04M34.588 271.04c-.016-.16-.03-.32-.042-.49.013.17.026.33.042.49M36.507 284.63l-.126-.72.127.72M37.04 287.6l-.128-.7.128.7M37.557 290.39l-.203-1.09.203 1.09M35.985 281.57c-.018-.11-.032-.21-.05-.31.018.1.033.2.05.31M35.18 276.22l-.052-.42.053.42M35.603 279.14l-.093-.61.093.61M69.635 298.95c-.122-.26-.24-.52-.356-.78.115.26.233.52.355.78M238.72 214.98c-.11-.5-.22-1.01-.31-1.53.09.52.2 1.03.31 1.53M239.68 218.25c-.17-.46-.33-.93-.47-1.42.14.49.3.96.47 1.42M241.03 221.22c-.23-.41-.45-.84-.65-1.27.2.43.42.86.65 1.27M240.32 219.81c-.18-.41-.36-.82-.52-1.25.16.43.34.84.52 1.25M239.16 216.65c-.13-.44-.25-.88-.36-1.34.11.46.23.9.36 1.34M237.94 209.66c-.03-.47-.06-.95-.08-1.42.02.47.05.95.08 1.42M237.85 207.9c-.02-.54-.03-1.07-.03-1.6 0 .53.01 1.06.03 1.6M238.37 213.24c-.08-.47-.15-.94-.21-1.41.06.47.13.94.21 1.41M238.12 211.5c-.07-.53-.12-1.06-.16-1.59.04.53.09 1.06.16 1.59M292.72 267.54c.25-1.69.63-3.36 1.11-4.98.15-.49.31-.97.45-1.46.05-.14.09-.27.13-.41.09-.25.15-.48.18-.71.27-.95.53-1.9.77-2.86-1.14 3-2.27 6.46-3.22 10.31l.58.11zM249.36 227.75c-.48-.11-.93-.24-1.37-.39.44.15.89.28 1.37.39M247.67 227.24c-.43-.16-.85-.34-1.25-.55.4.21.82.39 1.25.55M237.83 206.02c0-.47.02-.93.04-1.4-.02.47-.04.93-.04 1.4M241.89 222.59c-.25-.35-.48-.71-.7-1.09.22.38.45.74.7 1.09M290.51 297.84c1.18.1 2.36.28 3.55.53 16.17 3.47 26.5 19.44 23.03 35.61-3.46 16.16-19.44 26.5-35.6 23.03-6.04-1.3-11.27-4.34-15.26-8.48-.58 11.42 2.06 23.13 8.31 33.72 9 15.24 23.64 25.08 39.69 28.45-3.48-10.29-4.72-20.07 1.97-27.49 8.07-8.96 19.48-6.38 30.51-3.88 1.97.45 3.95.89 5.95 1.29-12.37-26.85-2.21-53.57 7.64-79.49v-.02c-11.35-7.57-25-11.1-38.6-9.99l.03-.01s-18.61 1.46-24.73-5.68c-2.17-2.53-3.46-5.37-4.11-8.35l-2.47-.5c-.85 6.47-1 13.65.09 21.26M246.38 226.67c-.39-.2-.76-.43-1.12-.68.36.25.73.48 1.12.68M242.79 223.77c-.29-.34-.57-.7-.83-1.07.26.37.54.73.83 1.07M243.9 224.92c-.32-.29-.61-.59-.89-.91.28.32.57.62.89.91M245 225.81c-.36-.26-.71-.53-1.04-.83.33.3.68.57 1.04.83M238.19 200.77c.06-.51.13-1.01.21-1.5-.08.49-.15.99-.21 1.5M242.96 187.94c.2-.18.4-.35.61-.49-.21.14-.41.31-.61.49M243.62 187.43c.19-.13.38-.22.58-.3-.2.08-.39.17-.58.3M244.36 187.06c.22-.07.43-.13.65-.15-.22.02-.43.08-.65.15M242.3 188.65c.16-.21.33-.39.51-.56-.18.17-.35.35-.51.56"/><g transform="translate(0 260.59)"><mask id="b" fill="#fff"><use xlink:href="#a"/></mask><path fill="#ECECEC" mask="url(#b)" d="M3.8 56.245c.33.718.684 1.428 1.056 2.132l-.004.002c.262.494.545.98.83 1.468.074.127.14.26.217.387.346.578.708 1.148 1.086 1.713.013.018.023.038.035.056.355.528.725 1.047 1.107 1.563.045.062.086.126.132.188.43.574.874 1.14 1.336 1.698 1.7 2.05 3.558 3.893 5.54 5.532 7.448-.33 13.79.598 17.838 1.452 1.187-10.547-1.36-24.006-3.846-37.076-2.342-12.32-4.57-24.107-4.18-34.697-3.478 1.525-6.81 3.545-9.88 6.092C.22 19.07-3.898 39.515 3.8 56.245"/></g><path fill="#ECECEC" d="M80.766 270.45c-.634 2.96-1.785 5.75-3.42 8.31-.776 1.21-1.293 2.45-1.58 3.79-1.394 6.5 2.866 14.44 6.684 19.96.693 1.01 1.415 1.98 2.15 2.94 2.746-4.54 7.08-9.61 13.563-12.06 5.137-1.94 10.887-.71 16.117 1.62 16.6-17.87 31.16-40.12 38.21-51.52 4-6.49 11.73-11.62 23.06-15.37-.24-8.57-3.45-32.67-30.82-44.34-3.97-1.69-12.74-6.02-23.75-14.95-1 1.21-1.98 2.44-2.92 3.7-2.88 3.85-5.5 7.92-7.81 12.18-.77 1.42-1.51 2.86-2.21 4.32-2.81 5.84-5.08 11.99-6.72 18.39-1.07 4.12-1.866 8.36-2.398 12.67-.152.59-.28 1.74-.375 3.58-.005.08-.01.15-.012.22-.107 1.27-.19 2.54-.25 3.82-1.38 17.7-5.47 25.24-14.928 30.91-.755.46-1.603.82-2.486 1.15.64 3.51.662 7.11-.104 10.68M241.67 189.51c.18-.27.36-.53.55-.77-.19.24-.37.5-.55.77M205.09 78.377c7.9-.53 14.11 2.803 17.49 9.385 2.27 4.406 2.87 9.53 3.45 14.488.5 4.22 1.01 8.55 2.43 11.34 1.54-.34 4.54-1.31 9.88-4.05.55-.28 1.11-.58 1.68-.88.27-1.7.44-3.42.49-5.17.02-.79.02-1.58 0-2.38h.01c-.02-.55-.05-1.116-.09-1.677-.01-.15-.01-.297-.03-.446-.05-.672-.12-1.344-.21-2.018 0-.023 0-.045-.01-.068-.08-.63-.18-1.26-.29-1.89-.01-.076-.02-.152-.04-.228-.13-.705-.27-1.41-.44-2.115-.83-3.502-2.07-6.795-3.67-9.84-1.28-2.433-2.79-4.71-4.48-6.805-.43-.524-.86-1.036-1.31-1.538-1.35-1.502-2.79-2.902-4.33-4.188s-3.17-2.46-4.87-3.512c-1.7-1.05-3.48-1.98-5.31-2.78-1.84-.8-3.74-1.47-5.69-1.997-.64-.176-1.3-.337-1.96-.482-2.63-.582-5.34-.91-8.09-.964-3.44-.07-6.94.29-10.44 1.116-.66.158-1.32.332-1.97.52-.25.072-.5.153-.74.23-.39.12-.78.24-1.17.37-.31.107-.62.223-.93.337-.31.11-.61.222-.91.34-.35.14-.7.284-1.04.43-.25.105-.49.21-.74.32-.37.168-.75.345-1.12.524-.19.096-.39.19-.58.288-.4.203-.8.41-1.2.626-.14.08-.28.16-.43.24-.25.14-.5.275-.75.422-.18.103-.35.214-.52.32-.08.05-.17.105-.25.157-.47.287-.93.578-1.37.882v.005c-.61.413-1.21.837-1.8 1.28-7.2 5.435-12.42 13.078-14.92 21.678 8.01.96 14.91 3.42 18.68 4.996 7.17-9.665 17.55-16.594 27.59-17.267"/><path fill="#ECECEC" d="M184.66 225.58c5.01-1.17 10.51-2.14 16.55-2.9 11.91-1.5 22.98-1.84 29.54-1.88-2.66-7.66-2.91-16.93-1.08-25.48 1.24-5.79 3.15-9.71 5.25-12.36-2.03-1.52-4.03-3.62-5.85-6.55-4.04-6.51-14.88-11.82-25.36-16.94-13.22-6.47-26.88-13.15-32.45-24.84-2.98-6.25-3.7-13.51-2.09-21 .73-3.4 1.9-6.73 3.43-9.9-3.5-1.35-9.11-3.18-15.36-3.87-.01.24-.04.48-.05.72-.14 3.69.19 7.47 1.08 11.25.91 3.82 2.31 7.39 4.13 10.66.38.68.77 1.35 1.18 2 1.94 3.68 4.84 11.48-2.8 15.08-.09.04-.15.08-.22.11-1.92.78-3.81 1.6-5.67 2.49-1.46.71-2.9 1.44-4.32 2.21-1.06.58-2.11 1.18-3.15 1.79-3.12 1.85-6.14 3.86-9.03 6.02-3.85 2.89-7.5 6.04-10.89 9.44-.11.1-.2.21-.31.31 6.8 5.55 13.94 10.18 21.2 13.27 29.67 12.65 35.3 38.42 36.27 50.37M238.45 198.98c.08-.43.16-.85.24-1.26-.08.41-.16.83-.24 1.26M238.78 197.27c-.01.06-.02.11-.04.17.1-.48.21-.94.32-1.39-.1.4-.19.81-.28 1.22"/><g transform="translate(355.35 306.94)"><mask id="d" fill="#fff"><use xlink:href="#c"/></mask><path fill="#ECECEC" mask="url(#d)" d="M8.585 75.1c2.99.07 5.998-.157 9.013-.863 2.963-.693 5.76-1.97 8.38-3.632.115-.244.237-.484.35-.73.304-.66.597-1.328.878-2 1.12-2.686 2.046-5.45 2.77-8.263.725-2.814 1.248-5.68 1.563-8.574.315-2.894.424-5.816.32-8.744-.036-.976-.095-1.952-.18-2.93-.328-3.902-1.04-7.802-2.152-11.64-1.388-4.797-3.397-9.5-6.054-14-.504-.855-1.03-1.69-1.57-2.512-.207-.315-.427-.62-.64-.93-.335-.49-.67-.98-1.017-1.457-.283-.388-.576-.766-.868-1.147-.288-.374-.574-.75-.867-1.117-.344-.424-.694-.84-1.046-1.256-.25-.296-.503-.592-.76-.882-.397-.452-.802-.894-1.21-1.33-.216-.23-.433-.457-.65-.683-.455-.472-.917-.936-1.384-1.39-.172-.165-.344-.328-.517-.49-.108-.104-.218-.206-.325-.31C2.774 26.204-5.786 50.855 8.586 75.1"/></g><path fill="#ECECEC" d="M241.09 190.5c.14-.26.29-.52.44-.76-.15.24-.3.5-.44.76M238.01 202.42c.04-.45.09-.89.14-1.34-.05.45-.1.89-.14 1.34M237.88 204.29c.02-.53.06-1.05.1-1.57-.04.52-.08 1.04-.1 1.57M240.03 192.91c.12-.33.24-.64.37-.95-.13.31-.25.62-.37.95M240.52 191.69c.15-.36.31-.69.48-1.02-.17.33-.33.66-.48 1.02M239.14 195.76c.1-.37.2-.74.3-1.1-.1.36-.2.73-.3 1.1M239.53 194.36c.13-.42.27-.82.41-1.22-.14.4-.28.8-.41 1.22M178.47 114.75c.11-.42.22-.84.34-1.26-.12.42-.23.84-.34 1.26M178.28 115.58c-.04.18-.06.35-.1.53.06-.3.11-.59.18-.89-.03.12-.06.24-.08.36M178.91 113.14c.15-.53.32-1.05.51-1.57-.19.52-.36 1.04-.51 1.57M177.88 117.99c.03-.27.07-.55.11-.82-.04.27-.08.55-.11.82M71.84 262.32c-.044-.32-.097-.65-.157-.97.06.32.113.65.157.97M177.7 119.86l.06-.83-.06.83M179.55 111.22c.15-.42.31-.83.47-1.24-.16.41-.32.82-.47 1.24M181.87 106.08c.21-.39.42-.76.64-1.14-.22.38-.43.75-.64 1.14M180.9 107.99c.24-.51.49-1.01.75-1.51-.26.5-.51 1-.75 1.51M180.21 109.53c.19-.46.39-.91.6-1.36-.21.45-.41.9-.6 1.36M71.69 268.32c-.025.13-.055.25-.083.37.014-.06.036-.13.05-.19.013-.06.02-.12.032-.18M178.95 128.91c-.07-.19-.12-.39-.19-.59.07.2.12.4.19.59M177.66 121.71v-.81.81M72.017 264.54c.004.2.007.4.005.59.002-.19 0-.39-.005-.59M307.99 332.02c2.39-11.14-4.74-22.15-15.88-24.54-11.15-2.39-22.16 4.73-24.55 15.88-2.39 11.14 4.74 22.15 15.88 24.54 11.15 2.39 22.16-4.73 24.55-15.88M182.75 104.54c.29-.48.59-.96.9-1.44-.31.48-.61.96-.9 1.44M178.4 127.16c-.06-.24-.11-.48-.17-.72.06.24.11.48.17.72M177.76 123.55c-.03-.26-.04-.53-.06-.8.02.27.03.54.06.8M178 125.37c-.04-.26-.07-.51-.11-.77.04.26.07.51.11.77M71.948 263.26c-.026-.28-.058-.56-.096-.85.038.29.07.57.096.85M189.68 95.834c.39-.377.79-.743 1.2-1.1-.41.357-.81.723-1.2 1.1M202.96 88.093c.34-.08.69-.148 1.03-.206-.34.058-.69.127-1.03.206M204.38 87.822c.44-.066.89-.12 1.33-.15-.44.03-.89.084-1.33.15M199.9 89.044c.37-.146.74-.282 1.12-.405-.38.122-.75.258-1.12.404M161.06 311.68c2.12-9.89 15.87-16.24 22.97-18.9-.3-1.86-.57-3.68-.81-5.39-.46-3.24-.89-6.3-1.48-8.47-2.15-8.02-17.95-15-29.25-18.2-7.07 10.6-16.6 23.88-27.26 36 3.59 4.29 6.62 8.56 9.16 12.75 7.86 6.54 16.72 11.91 26.35 15.81.92.37 1.85.73 2.78 1.08-1.36-4.02-2.13-7.5-2.53-9.76-.31-1.72-.27-3.36.07-4.92M201.26 88.552c.45-.143.9-.268 1.34-.38-.44.112-.89.237-1.34.38M193.87 92.36c.4-.284.8-.556 1.21-.818-.41.262-.81.534-1.21.818M195.47 91.298c.33-.21.67-.41 1.01-.604-.34.194-.68.394-1.01.604M191.21 94.445c.31-.268.63-.53.95-.786-.32.255-.64.517-.95.785M198.41 89.688c.36-.17.72-.33 1.09-.48-.37.15-.73.31-1.09.48M192.52 93.37c.42-.33.84-.65 1.26-.953-.42.304-.84.624-1.26.952M196.82 90.5c.44-.242.88-.472 1.32-.686-.44.214-.88.444-1.32.686"/><path fill="#ECECEC" d="M281.17 298.45c-1.54-11.39-.64-21.81 1.25-30.61 2-9.32 5.09-16.82 7.53-21.77-.64-.28-1.28-.58-1.9-.93-4.02-2.27-13.28-3.7-22.24-5.07-5.95-.92-12.11-1.87-18.4-3.22-4.72-1.01-8.5-3.4-11.39-6.71-3.06-.06-17.85-.21-33.76 1.8-22.16 2.8-37.03 8.64-41.85 16.44-.78 1.27-1.67 2.69-2.63 4.2 6.52 2.05 16.56 5.86 23.97 11.68 8.21-6.65 27.04-17.58 42.72-12.04 19.47 6.88 24.46 32.11 24.66 33.18l-9.15 1.73c-.04-.2-4.23-21.04-18.61-26.12-11.24-3.97-26.83 5.2-33.19 9.99 1.14 1.72 2.03 3.54 2.56 5.49.73 2.73 1.21 6.07 1.7 9.6.15 1.05.31 2.14.47 3.24l22.27-9.33 3.61 8.59-24.04 10.05c1.45 5.39 3.73 10.09 7.78 12.22 5.49 2.89 14.39 1.32 26.44-4.67l4.15 8.35c-15.1 7.5-26.52 8.99-34.93 4.56-6.65-3.5-10.11-10.08-12.16-17.12-8.18 3.26-16.65 8.62-15.87 12.97.66 3.71 2.02 9.28 4.71 14.85 7.52 1.82 15.36 2.8 23.44 2.8 15.79 0 30.71-3.68 43.98-10.19.02-.01.03 0 .04 0 6.67-3.36 12.17-4.14 16.47-2.45 2.94-11.04 11.8-19.11 22.37-21.51M188.5 97.016c.33-.34.66-.673.99-1-.33.327-.66.66-.99 1M187.26 98.364c.3-.334.6-.664.9-.986-.3.322-.6.652-.9.986M185.95 99.923c.35-.436.71-.865 1.07-1.284-.36.418-.72.846-1.07 1.283M183.74 102.96c.28-.42.58-.84.87-1.26-.3.42-.59.84-.87 1.26M184.91 101.3c.26-.36.52-.71.79-1.05-.27.34-.53.69-.79 1.05"/><path fill="#78B42A" d="M222.57 121.36c-1.24-1.38-2.19-2.96-2.93-4.67-.37-.85-.69-1.73-.96-2.64-.28-.9-.51-1.83-.71-2.77-2.42-11.283-.35-24.406-12.25-23.608h-.01c-.44.03-.89.085-1.33.15-.13.02-.26.043-.39.064-.34.06-.69.128-1.03.206-.12.028-.24.052-.36.082-.44.11-.89.236-1.34.38-.08.024-.16.056-.24.084-.37.125-.75.26-1.12.406-.13.053-.27.108-.4.164-.37.15-.73.31-1.09.48-.09.043-.18.08-.27.125-.44.215-.88.444-1.32.686-.11.062-.23.13-.34.194-.34.193-.68.395-1.01.604-.13.08-.26.16-.39.244-.41.262-.81.533-1.21.818-.03.02-.06.037-.09.056-.42.305-.84.625-1.26.953-.12.095-.24.193-.36.29-.32.255-.64.517-.95.785-.11.097-.22.192-.33.29-.41.357-.81.722-1.2 1.1-.07.06-.12.122-.19.182-.33.327-.66.66-.99 1-.12.12-.23.24-.34.36-.31.324-.6.653-.9.986l-.24.275c-.36.42-.72.85-1.07 1.285-.08.107-.16.217-.25.327-.27.34-.53.69-.79 1.05-.1.13-.2.27-.3.4-.29.42-.59.84-.87 1.26-.03.05-.06.1-.09.14-.31.48-.61.96-.9 1.44-.08.13-.16.27-.24.4-.22.38-.43.75-.64 1.14-.07.13-.14.26-.22.4-.26.5-.51 1-.75 1.51l-.09.18c-.21.45-.41.9-.6 1.36-.06.15-.13.3-.19.45-.16.41-.32.82-.47 1.24-.05.11-.09.23-.13.35-.19.52-.36 1.04-.51 1.57-.04.12-.07.23-.1.35-.12.42-.23.84-.34 1.26-.03.16-.07.31-.11.47l-.18.89c-.07.35-.13.71-.19 1.06-.04.27-.08.55-.11.82-.05.35-.09.7-.12 1.04l-.06.83c-.02.34-.03.69-.04 1.04v.81c.01.35.02.7.04 1.04.02.27.03.54.06.8.03.35.08.7.13 1.05.04.26.07.51.11.77.07.36.15.72.23 1.07.06.24.11.48.17.72.11.39.23.77.36 1.16.07.2.12.4.19.59.22.58.45 1.15.72 1.71 8.21 17.25 46.25 23.02 57.32 40.88 2.7 4.36 5.67 5.86 8.92 5.71 3.4-1.14 9.52-4.29 13.45-6.32 1.44-.74 2.86-1.47 4.25-2.18 2.69-1.54 5.51-2.97 8.45-3.97-9.56-10.39-21.27-18.76-34.44-24.39-.06-.03-.11-.07-.18-.1-9.01-4.51-5.53-12.18-3.93-14.87.21-.31.42-.63.62-.95 0-.01.01-.02.01-.02.72-1.15 1.37-2.35 1.98-3.57-6.22 2.52-11.13 3.21-13.55.52"/><path fill="#fff" d="M228.46 113.59c-1.42-2.79-1.93-7.12-2.43-11.34-.58-4.96-1.18-10.082-3.45-14.487-3.38-6.583-9.59-9.916-17.49-9.387-10.04.674-20.42 7.603-27.59 17.268 1.75.73 2.84 1.268 3.05 1.374l-2.11 4.162-2.1 4.15c-.08-.04-1.47-.72-3.74-1.6-1.53 3.17-2.71 6.5-3.43 9.9-1.61 7.49-.89 14.75 2.09 21 5.57 11.69 19.23 18.37 32.45 24.84 10.48 5.12 21.32 10.43 25.36 16.94 1.82 2.93 3.82 5.03 5.85 6.55 3.18-4.01 6.82-5.11 9.28-5.33.43-.03 1.02-.19 1.71-.42-3.25.15-6.22-1.35-8.92-5.71-11.07-17.86-49.11-23.63-57.32-40.88-.27-.56-.5-1.13-.72-1.71-.07-.19-.12-.39-.19-.59-.13-.39-.26-.77-.36-1.16-.06-.24-.11-.48-.17-.72-.08-.35-.16-.71-.23-1.07-.04-.26-.07-.51-.11-.77-.05-.35-.1-.7-.13-1.05-.03-.26-.04-.53-.06-.8-.02-.34-.03-.69-.04-1.04-.01-.27 0-.54 0-.81.01-.35.02-.7.04-1.04l.06-.83c.03-.34.07-.69.12-1.04.03-.27.07-.55.11-.82.06-.35.12-.71.19-1.06.04-.18.06-.35.1-.53.02-.12.05-.24.08-.36.04-.16.07-.31.11-.47.11-.42.22-.84.34-1.26.03-.12.06-.23.1-.35.15-.53.32-1.05.51-1.57.04-.12.08-.24.13-.35.15-.42.31-.83.47-1.24.06-.15.13-.3.19-.45.19-.46.39-.91.6-1.36l.09-.18c.24-.51.49-1.01.75-1.51.08-.13.15-.27.22-.4.21-.39.42-.76.64-1.14.08-.13.16-.27.24-.4.29-.49.59-.96.9-1.44.03-.04.06-.09.09-.14.28-.42.57-.84.87-1.26.1-.13.2-.27.3-.4.26-.36.52-.71.79-1.05.09-.11.17-.22.25-.327.35-.436.71-.864 1.07-1.284.08-.094.16-.185.24-.276.3-.334.6-.663.9-.986.11-.122.23-.242.34-.362.33-.34.66-.673.99-1 .06-.06.13-.122.19-.182.39-.377.79-.742 1.2-1.1.11-.097.22-.192.33-.29.31-.267.63-.53.95-.784.12-.098.24-.195.36-.29.41-.328.84-.65 1.26-.954.03-.02.06-.037.09-.056.4-.285.8-.555 1.21-.818.13-.084.26-.164.39-.244.33-.21.67-.41 1.01-.604.11-.065.23-.132.34-.194.44-.243.88-.472 1.32-.686.09-.045.18-.083.27-.126.36-.17.72-.33 1.09-.48.13-.056.27-.11.4-.165.37-.145.74-.28 1.12-.405.08-.028.16-.06.24-.086.45-.143.9-.268 1.34-.38.12-.028.24-.052.36-.08.34-.078.69-.147 1.03-.206.13-.02.26-.045.39-.063.44-.066.89-.12 1.33-.15h.01c11.9-.8 9.83 12.324 12.25 23.607.2.94.43 1.87.71 2.77.27.91.59 1.79.96 2.64.74 1.71 1.69 3.29 2.93 4.67 2.42 2.69 7.33 2 13.55-.52 1.9-3.81 3.24-7.91 3.9-12.18-.57.3-1.13.6-1.68.88-5.34 2.74-8.34 3.71-9.88 4.05M272.1 164.78l-.04-.04c-2.94 1-5.76 2.43-8.45 3.97 2.97-1.5 5.83-2.86 8.49-3.93"/><path fill="#4DAAE0" d="M245.01 186.91c-.22.02-.43.08-.65.15-.05.02-.11.04-.16.07-.2.08-.39.17-.58.3-.02.01-.04.01-.06.02-.2.14-.4.31-.6.49l-.15.15c-.18.17-.35.35-.51.56-.03.03-.06.06-.08.09-.19.24-.37.5-.55.77-.05.08-.09.15-.14.23-.15.24-.3.5-.44.76-.03.06-.06.12-.09.17-.17.32-.33.66-.48 1.02l-.12.27c-.13.31-.25.62-.37.95-.03.08-.06.15-.09.23-.14.4-.28.8-.41 1.22l-.09.3c-.1.36-.2.73-.3 1.1-.03.1-.05.19-.08.29-.11.45-.22.91-.31 1.39-.02.09-.04.18-.06.28-.08.41-.16.83-.24 1.25-.01.1-.03.2-.05.3-.08.49-.15.99-.21 1.5-.02.1-.03.21-.04.31-.05.45-.1.89-.14 1.34l-.03.3c-.04.52-.08 1.04-.1 1.57-.01.11-.01.22-.01.33-.02.46-.04.93-.04 1.4 0 .09-.01.18-.01.28 0 .53.01 1.06.03 1.6 0 .11.01.23.01.34.02.47.05.95.08 1.42.01.08.01.17.02.25.04.53.1 1.06.16 1.59.01.11.03.22.04.33.06.47.13.94.21 1.41.02.07.03.14.04.21.09.52.2 1.03.31 1.53.03.11.06.22.08.33.11.46.23.9.36 1.34.02.06.03.12.05.18.14.49.3.96.47 1.42.04.11.08.21.12.32.16.42.34.83.52 1.24.02.04.04.09.06.14.2.43.42.86.65 1.27.06.09.11.18.16.28.23.37.45.74.7 1.09.02.04.04.07.07.11.26.37.54.73.83 1.07.07.08.14.16.22.24.28.32.58.62.89.91l.06.06c.33.3.68.57 1.04.83.08.06.17.12.26.18.36.25.73.48 1.12.68.01.01.02.02.04.02.4.21.82.39 1.25.55.1.04.21.08.32.12.44.15.89.28 1.37.38 17.08 3.67 34.77 4.48 43.27 9.28 1.98 1.12 3.89 1.38 5.65 1.12.11-1.89.18-3.78.18-5.69 0-22.54-7.46-43.31-20.02-60.04-9.02 2.67-25.73 13.83-33.43 14.5"/><path fill="#fff" d="M259.36 170.89c-3.93 2.03-10.05 5.18-13.45 6.32-.69.23-1.28.39-1.71.42-2.46.22-6.1 1.32-9.28 5.33-2.1 2.65-4.01 6.57-5.25 12.36-1.84 8.55-1.58 17.82 1.08 25.48 3.63-.03 5.88.03 6.13.04l-.28 9.31c-.02 0-.22 0-.58-.01 2.89 3.31 6.67 5.7 11.39 6.71 6.29 1.35 12.45 2.3 18.4 3.22 8.96 1.37 18.22 2.8 22.24 5.07.62.35 1.26.65 1.9.93 1.94-3.96 3.47-6.3 3.68-6.62l4.33 2.89-.45-.3.45.3c.14-1.39.24-2.79.32-4.2-1.76.26-3.67.01-5.65-1.12-8.5-4.8-26.19-5.61-43.27-9.27-.48-.11-.93-.24-1.37-.39-.11-.04-.22-.08-.32-.12-.43-.16-.85-.34-1.25-.55-.02 0-.03-.01-.04-.02-.39-.2-.76-.43-1.12-.68-.09-.06-.18-.12-.26-.18-.36-.26-.71-.53-1.04-.83l-.06-.06c-.31-.29-.61-.59-.89-.91-.08-.08-.15-.16-.22-.24-.29-.34-.57-.7-.83-1.07-.03-.04-.05-.07-.07-.11-.25-.35-.48-.71-.7-1.09-.05-.1-.1-.19-.16-.28-.23-.41-.45-.84-.65-1.27-.02-.05-.04-.1-.06-.14-.18-.41-.36-.82-.52-1.24-.04-.11-.08-.21-.12-.32-.17-.46-.33-.93-.47-1.42-.02-.06-.04-.12-.05-.18-.13-.44-.25-.88-.36-1.34-.02-.11-.05-.22-.08-.33-.11-.5-.22-1.01-.31-1.53-.01-.07-.02-.14-.04-.21-.08-.47-.15-.94-.21-1.41-.01-.11-.03-.22-.04-.33-.06-.53-.12-1.06-.16-1.59-.01-.08-.01-.17-.02-.25-.03-.47-.06-.95-.08-1.42 0-.11-.01-.23-.01-.34-.02-.54-.03-1.07-.03-1.6 0-.1.01-.19.01-.28 0-.47.02-.93.03-1.4.01-.11.01-.22.02-.33.02-.53.06-1.05.1-1.57l.03-.3c.04-.45.09-.89.14-1.34.01-.1.02-.21.04-.31.06-.51.13-1.01.21-1.5.02-.1.04-.2.05-.29.08-.43.16-.85.24-1.26.02-.1.04-.19.05-.28.02-.06.03-.11.04-.17.09-.41.18-.82.28-1.22.03-.1.05-.19.08-.29.1-.37.2-.74.3-1.1l.09-.3c.13-.42.27-.82.41-1.22.03-.08.06-.15.09-.23.12-.33.24-.64.37-.95l.12-.27c.15-.36.31-.7.48-1.02.03-.05.06-.11.09-.17.14-.26.29-.52.44-.76.05-.08.09-.15.14-.23.18-.27.36-.53.55-.77.02-.03.05-.06.08-.09.16-.21.33-.39.51-.56l.15-.15c.2-.18.4-.35.6-.49.02-.01.04-.01.06-.02.19-.13.38-.22.58-.3.05-.03.11-.05.16-.07.22-.07.43-.13.65-.15 7.7-.67 24.42-11.83 33.43-14.5-1.99-2.65-4.11-5.2-6.34-7.63-2.66 1.07-5.51 2.43-8.49 3.93-1.39.71-2.81 1.44-4.25 2.18"/><path fill="#78B42A" d="M34.433 258.81c-.062.66-.107 1.33-.14 2.01-.01.16-.016.32-.023.48-.028.68-.05 1.38-.052 2.09v.04c-.003.7.01 1.41.03 2.13l.014.49c.026.72.06 1.44.105 2.17l.023.33c.044.66.096 1.33.155 2.01.015.16.027.32.043.48.068.74.145 1.49.23 2.24.018.17.038.33.058.5.078.67.162 1.34.25 2.02.02.14.036.28.056.42.102.76.213 1.53.328 2.31.03.2.06.41.093.61.106.7.218 1.41.333 2.12l.05.31c.126.77.26 1.55.395 2.34.043.24.084.48.128.72.13.76.266 1.51.403 2.27.044.23.087.47.13.7l.314 1.7.203 1.09.187.98c.78 4.15 1.594 8.34 2.327 12.51.017.08.03.16.046.25.313 1.79.61 3.57.883 5.34l.05.33c.135.89.265 1.77.386 2.65l.01.08c.117.84.224 1.67.326 2.51.013.11.028.22.04.33.1.85.195 1.69.278 2.52l.03.33c.077.78.146 1.56.206 2.33l.02.26c.06.81.11 1.62.15 2.43l.018.43c.037.79.063 1.58.077 2.36l.002.06c.012.79.01 1.57-.003 2.34-.004.16-.008.32-.01.48-.02.77-.046 1.54-.092 2.29-.002.04-.006.08-.01.13-.043.71-.103 1.42-.174 2.13l-.046.45c-.078.73-.17 1.44-.28 2.15-.017.11-.038.23-.057.34-.1.63-.215 1.25-.344 1.86-.017.09-.03.19-.05.28-.01.05-.024.1-.035.15-.126.57-.26 1.15-.412 1.71-.016.06-.035.12-.052.18-.047.18-.1.35-.15.53.977.02 1.956 0 2.933-.05 2.002-.1 4-.34 5.978-.73.66-.13 1.317-.28 1.97-.44 2.62-.65 5.19-1.56 7.68-2.73 3.11-1.47 6.087-3.35 8.856-5.65.526-.43 1.037-.88 1.535-1.34.192-.17.374-.35.562-.53.296-.28.593-.56.88-.85.233-.24.457-.48.684-.72.225-.23.448-.47.665-.71.254-.28.498-.56.742-.85.174-.2.348-.4.517-.61.262-.32.52-.64.772-.97l.392-.51c.27-.36.537-.73.793-1.09.094-.14.185-.27.278-.41.163-.24.333-.47.49-.71.112-.17.213-.35.32-.52.054-.08.106-.17.157-.25.29-.47.57-.93.838-1.4h-.006c.363-.65.715-1.3 1.044-1.95.508-1.02.96-2.06 1.382-3.1l-.246-.3c-.266-.31-.53-.62-.794-.94-.192-.24-.382-.47-.573-.7-.26-.32-.516-.64-.77-.97-.19-.24-.376-.47-.562-.71-.255-.33-.506-.67-.758-1-.177-.24-.355-.47-.53-.71-.266-.36-.527-.73-.788-1.1-.15-.21-.303-.42-.45-.63-.35-.5-.69-1.01-1.027-1.52-.056-.09-.114-.17-.17-.26-.377-.57-.742-1.15-1.098-1.74-.125-.2-.242-.41-.366-.62-.233-.39-.465-.78-.69-1.18-.136-.24-.265-.48-.397-.72-.198-.37-.395-.73-.584-1.1-.133-.25-.26-.51-.388-.76-.177-.36-.35-.72-.517-1.08-.12-.26-.24-.52-.356-.78-.162-.36-.315-.72-.465-1.08-.107-.26-.213-.51-.313-.77-.15-.38-.287-.76-.423-1.14-.086-.24-.175-.47-.254-.71-.15-.44-.28-.88-.41-1.33-.053-.17-.113-.35-.16-.53-.17-.61-.323-1.23-.455-1.84-.03-.14-.05-.28-.077-.42-.095-.48-.184-.95-.254-1.43-.034-.22-.055-.44-.082-.67-.05-.39-.094-.78-.125-1.17-.018-.25-.028-.49-.04-.73-.017-.37-.03-.74-.03-1.11 0-.25.004-.5.01-.75.013-.36.032-.73.06-1.09.02-.25.04-.49.07-.74.04-.37.097-.73.158-1.1.04-.23.074-.47.12-.7.02-.09.028-.17.047-.26.056-.27.14-.53.208-.8.066-.26.124-.51.2-.77.11-.37.244-.73.374-1.09.084-.23.158-.47.252-.7.162-.4.352-.8.542-1.2.09-.19.17-.38.266-.57.3-.58.632-1.16.998-1.73.238-.38.454-.76.657-1.14.054-.1.106-.21.158-.31.16-.32.308-.63.444-.96l.098-.22c.156-.39.296-.78.42-1.18.03-.09.055-.19.083-.28.092-.32.176-.64.25-.96.027-.12.057-.24.08-.37.028-.13.05-.26.074-.39.032-.18.062-.36.088-.54.018-.13.035-.26.05-.39.023-.18.042-.36.057-.55.01-.12.022-.25.03-.38.01-.19.02-.38.026-.56.004-.13.008-.25.01-.38 0-.19 0-.39-.006-.59-.003-.11-.003-.23-.008-.34-.01-.22-.025-.44-.043-.66-.007-.09-.01-.19-.02-.28-.025-.28-.058-.56-.096-.84-.002-.04-.005-.07-.01-.1-.045-.32-.097-.65-.157-.97-.004-.01-.007-.03-.01-.04-7.532.21-15.613-1.34-19.37-2.17-.713-.19-1.43-.37-2.15-.52-1.746-.36-3.51-.61-5.285-.74-3.457-.27-6.947-.1-10.386.5-.007.07-.018.13-.024.2-.007.08-.018.15-.025.23"/><path fill="#fff" d="M71.84 262.32l.01.1c.04.28.072.56.097.84.01.09.014.19.02.28.017.22.033.44.04.66.006.11.007.23.01.34.004.2.008.4.005.59 0 .13-.006.25-.01.38-.005.18-.013.37-.026.56-.007.13-.018.26-.028.38-.017.19-.035.37-.057.55-.015.13-.03.26-.05.39-.025.18-.056.36-.088.54-.023.13-.045.26-.072.39-.012.06-.02.12-.033.18-.014.06-.035.13-.05.19-.073.32-.156.64-.25.96-.028.09-.052.19-.082.28-.125.4-.263.79-.42 1.18-.03.07-.066.15-.098.22-.136.32-.285.64-.443.96-.053.1-.105.21-.16.31-.203.38-.417.76-.656 1.14-.366.57-.696 1.15-.998 1.73-.098.19-.175.38-.267.57-.19.4-.38.8-.542 1.2-.092.23-.167.47-.25.7-.132.36-.265.72-.374 1.09-.076.26-.135.51-.2.77-.07.27-.152.53-.21.8-.018.09-.028.17-.044.26-.048.23-.083.47-.122.7-.06.37-.116.73-.157 1.1-.028.25-.05.49-.068.74-.03.36-.05.73-.06 1.09-.008.25-.013.5-.012.75 0 .37.013.74.03 1.11.012.24.022.48.04.73.03.39.076.78.124 1.17.028.23.05.45.082.67.07.48.157.95.253 1.43.028.14.047.28.077.42.132.61.285 1.23.455 1.84.05.18.108.36.16.53.13.45.262.89.41 1.33.08.24.17.47.254.71.136.38.274.76.422 1.14.1.26.207.51.313.77.15.36.303.72.465 1.08.115.26.234.52.355.78.167.36.34.72.517 1.08.128.25.255.51.387.76.188.37.384.73.582 1.1.133.24.263.48.4.72.222.4.454.79.688 1.18.122.21.24.42.366.62.355.59.72 1.17 1.097 1.74.055.09.114.17.17.26.336.51.677 1.02 1.027 1.52.148.21.3.42.45.63.26.37.52.74.788 1.1.175.24.352.47.53.71.25.33.5.67.758 1 .185.24.373.47.56.71.256.33.512.65.77.97.19.23.382.46.574.7.264.31.528.63.795.94.082.1.163.2.246.29.084-.2.176-.41.256-.62h.002c.317-.83.598-1.68.862-2.52.636-1.65 1.662-3.94 3.14-6.39-.735-.96-1.457-1.93-2.15-2.94-3.818-5.52-8.078-13.46-6.685-19.96.288-1.34.805-2.58 1.58-3.79 1.636-2.56 2.788-5.35 3.42-8.31.766-3.57.746-7.17.106-10.68-2.686.99-5.88 1.44-9.198 1.54l.01.04c.06.32.114.65.158.97M29.13 295.95c2.483 13.07 5.03 26.53 3.845 37.08 2.724.57 4.418 1.11 4.686 1.2l-2.106 6.41.654-1.99-.65 1.99c.75.11 1.5.23 2.253.3 1.02.09 2.04.15 3.06.17.052-.18.11-.35.156-.53.017-.06.036-.12.052-.18.15-.56.286-1.13.413-1.71.012-.05.026-.1.037-.15.02-.09.032-.19.05-.28.127-.61.242-1.23.344-1.86l.06-.34c.108-.71.2-1.42.278-2.15l.046-.45c.07-.71.13-1.42.175-2.13 0-.04.006-.08.01-.13.044-.75.07-1.52.09-2.29l.01-.47c.01-.78.014-1.56.002-2.35v-.06c-.015-.78-.042-1.57-.078-2.36-.006-.14-.012-.29-.02-.43-.038-.81-.088-1.62-.148-2.43l-.02-.26c-.06-.77-.13-1.55-.205-2.33l-.03-.33c-.083-.83-.177-1.67-.277-2.52-.013-.11-.028-.22-.04-.33-.103-.84-.21-1.67-.326-2.51l-.01-.09c-.123-.87-.252-1.75-.387-2.64l-.05-.33c-.275-1.77-.57-3.55-.884-5.34l-.045-.25c-.732-4.17-1.545-8.36-2.327-12.51-.062-.33-.124-.66-.186-.98l-.203-1.09-.314-1.7c-.043-.23-.087-.47-.128-.7-.138-.76-.273-1.51-.405-2.27l-.126-.72c-.134-.79-.268-1.57-.395-2.34-.016-.11-.033-.21-.05-.31-.115-.71-.226-1.42-.332-2.12l-.093-.61c-.115-.78-.225-1.55-.328-2.31-.02-.14-.036-.28-.055-.42-.088-.68-.173-1.35-.25-2.02l-.06-.5c-.084-.75-.16-1.5-.23-2.24-.015-.16-.027-.32-.042-.49-.06-.67-.11-1.34-.155-2-.006-.11-.016-.22-.023-.33-.045-.73-.08-1.45-.105-2.17l-.014-.49c-.02-.72-.033-1.43-.03-2.13v-.04c.003-.71.023-1.41.052-2.09.006-.16.014-.32.022-.48.034-.68.08-1.35.14-2.01.008-.08.02-.15.026-.23.006-.07.017-.13.024-.2-3.25.57-6.45 1.52-9.532 2.87-.394 10.59 1.836 22.38 4.18 34.7"/><path d="M344.652 388.416c-10.93-2.473-17.32-3.644-21.536 1.034-4.305 4.778-2.177 13.094 1.488 22.512 6.11.215 12.292-.48 18.33-2.168 1.106-.308 2.207-.652 3.302-1.024 0 .002 0 .005.002.008.767-.263 1.53-.556 2.292-.85.203-.08.408-.145.61-.226.91-.364 1.81-.754 2.708-1.165.03-.013.06-.025.09-.04.837-.384 1.668-.797 2.494-1.224.1-.05.202-.096.3-.148.922-.483 1.838-.992 2.743-1.526 4.5-2.66 8.53-5.807 12.062-9.34 1.142-1.14 2.218-2.333 3.255-3.55-10.127 1.777-19.66-.375-28.14-2.294" fill="#78B42A"/><path fill="#fff" d="M363.93 382.04c.35.58.69 1.16 1.06 1.73l-7.85 5.02c-1.74-2.72-3.22-5.44-4.48-8.16-1.99-.41-3.98-.85-5.95-1.3-11.03-2.5-22.44-5.08-30.51 3.88-6.69 7.42-5.46 17.2-1.97 27.49 3.41.72 6.88 1.14 10.37 1.26-3.66-9.42-5.79-17.73-1.48-22.51 4.21-4.68 10.6-3.51 21.53-1.03 8.48 1.92 18.02 4.07 28.14 2.29 1.53-1.8 2.96-3.66 4.25-5.6.55-.82 1.07-1.65 1.57-2.48.38-.63.74-1.27 1.1-1.91.57-1.04 1.11-2.1 1.62-3.17-2.62 1.66-5.42 2.93-8.38 3.63-3.02.7-6.02.93-9.02.86"/><path fill="#fff" d="M352.66 380.62c1.26 2.72 2.74 5.45 4.48 8.17l7.85-5.02c-.37-.57-.71-1.15-1.06-1.73-14.37-24.24-5.81-48.9 4.04-74.88-.19-.19-.39-.38-.59-.56-.21-.2-.44-.38-.66-.58-.11-.09-.22-.19-.33-.28-.6-.52-1.2-1.03-1.82-1.52v.01c-.84-.67-1.68-1.33-2.55-1.95-.57-.41-1.14-.79-1.72-1.17 0 .01 0 .01-.01.02-9.84 25.92-19.99 52.64-7.63 79.49M125.23 296.72c10.66-12.12 20.19-25.4 27.26-36-1.09-.31-2.14-.59-3.13-.82l2.16-9.07c.82.2 3.14.78 6.26 1.75.96-1.51 1.84-2.93 2.63-4.2 4.82-7.8 19.69-13.65 41.85-16.44 15.91-2.01 30.7-1.86 33.76-1.8.36.01.56.01.58.01l.28-9.31c-.25-.01-2.5-.07-6.13-.04-6.56.04-17.63.38-29.54 1.88-6.04.76-11.54 1.73-16.55 2.9.31 3.83.15 6.25.14 6.35l-4.65-.38-4.63-.36c.01-.23.08-1.34.03-3.07-11.33 3.75-19.06 8.88-23.06 15.36-7.05 11.41-21.61 33.67-38.21 51.53 1.46.65 2.88 1.38 4.23 2.16l4-3.6c.94 1.05 1.84 2.1 2.72 3.15M186.03 301.98c2.05 7.04 5.51 13.62 12.16 17.12 8.4 4.43 19.83 2.94 34.93-4.56l-4.15-8.35c-12.05 5.99-20.95 7.56-26.44 4.67-4.05-2.13-6.32-6.83-7.78-12.22l-4.09 1.71c-1.48.45-3.05 1-4.63 1.63"/><path fill="#fff" d="M149.37 259.9c.98.23 2.03.51 3.12.82 11.3 3.2 27.1 10.18 29.25 18.2.59 2.17 1.02 5.23 1.48 8.47.24 1.71.5 3.53.81 5.39 1.7-.64 3.02-1.07 3.71-1.28l5.17-2.17c-.16-1.1-.32-2.19-.47-3.24-.49-3.53-.97-6.87-1.7-9.6-.53-1.95-1.42-3.77-2.56-5.49-1.31.99-2.24 1.79-2.65 2.25.01 0 .18-.19.36-.53l-8.19-4.44c.42-.77 1.86-2.25 4.05-4.02-7.41-5.82-17.45-9.63-23.97-11.67-3.12-.98-5.44-1.56-6.26-1.76l-2.15 9.07z"/><path fill="#fff" d="M186.03 301.98c1.58-.63 3.15-1.18 4.63-1.63l4.09-1.71 24.03-10.05-3.59-8.59-22.27 9.33-5.18 2.17c-.69.21-2.01.64-3.71 1.28-7.1 2.66-20.85 9.01-22.97 18.9-.34 1.56-.38 3.2-.07 4.92.4 2.26 1.17 5.75 2.53 9.76 2.58.95 5.2 1.8 7.88 2.55 1.15.32 2.3.61 3.47.9-2.69-5.58-4.05-11.15-4.71-14.86-.79-4.35 7.69-9.71 15.87-12.97"/><path fill="#fff" d="M177.7 268.28l8.19 4.44c-.18.34-.35.53-.36.53.41-.46 1.34-1.26 2.65-2.25 6.36-4.79 21.95-13.96 33.19-9.99 14.38 5.08 18.57 25.92 18.61 26.12l9.15-1.73c-.2-1.07-5.19-26.3-24.66-33.18-15.68-5.54-34.51 5.39-42.72 12.04-2.19 1.78-3.63 3.25-4.05 4.02M122.51 293.57l-4 3.6c7.05 4.06 12.33 9.25 12.33 9.25l-.01-.04c1.16 1.06 2.35 2.09 3.56 3.09-2.54-4.19-5.57-8.46-9.16-12.75-.88-1.05-1.78-2.1-2.72-3.15M267.56 323.36c2.39-11.15 13.4-18.27 24.55-15.88 11.14 2.39 18.26 13.4 15.88 24.54-2.39 11.15-13.41 18.27-24.55 15.88s-18.27-13.4-15.88-24.54m49.53 10.62c3.47-16.17-6.86-32.14-23.03-35.61-1.19-.25-2.37-.43-3.55-.54.17 1.22.37 2.44.61 3.67l-9.15 1.78c-.32-1.63-.58-3.24-.8-4.83-10.57 2.4-19.43 10.47-22.37 21.51 1.42.55 2.7 1.37 3.85 2.45 6.8 6.37 4.39 18.71 4.39 18.71l.01-.01c-.43 2.45-.7 4.93-.83 7.42 4 4.14 9.23 7.18 15.27 8.48 16.16 3.47 32.14-6.87 35.6-23.03"/><path fill="#fff" d="M289.95 246.07c-2.44 4.95-5.53 12.46-7.53 21.77-1.89 8.8-2.8 19.22-1.25 30.61.22 1.59.48 3.2.8 4.83l9.15-1.78c-.24-1.23-.44-2.45-.61-3.66-1.09-7.61-.94-14.79-.09-21.26l-4.54-.92 1.86-9.13 4.4.9c.95-3.85 2.08-7.31 3.22-10.31 1.22-4.8 2.1-9.73 2.6-14.78l-4.33-2.89c-.21.32-1.74 2.66-3.68 6.62M297.96 242.34l-.45-.3"/><path fill="#fff" d="M287.74 266.53l-1.86 9.13 4.54.92 2.47.5c-.68-3.1-.65-6.35-.17-9.54l-.58-.11-4.4-.9zM175.55 228.12c.05 1.73-.02 2.84-.03 3.07l4.63.36 4.65.38c.01-.1.17-2.52-.14-6.35-.97-11.95-6.6-37.72-36.27-50.37-7.26-3.09-14.4-7.72-21.2-13.27-2.17 2.2-4.25 4.5-6.21 6.89 11.01 8.93 19.78 13.26 23.75 14.95 27.37 11.67 30.58 35.77 30.82 44.34M35.553 340.64h.004l.65-1.99-.654 1.99z"/><path fill="#fff" d="M32.975 333.03c-4.047-.86-10.392-1.78-17.84-1.45.693.57 1.4 1.12 2.123 1.64 2.228 1.62 4.587 2.99 7.04 4.11.613.28 1.232.54 1.856.79 1.87.75 3.79 1.36 5.74 1.83 1.208.29 2.43.51 3.66.69l2.106-6.41c-.268-.09-1.96-.63-4.685-1.2M176.34 105.33l2.1-4.15 2.11-4.162c-.21-.106-1.3-.645-3.05-1.374-3.77-1.574-10.67-4.036-18.68-4.996-.5 1.72-.9 3.475-1.18 5.263-.2 1.303-.32 2.622-.4 3.95 6.25.7 11.86 2.52 15.36 3.87 2.27.88 3.66 1.56 3.74 1.6"/><path stroke="#C6C6C5" stroke-width="3" stroke-dasharray="5.988,5.988" d="M371.14 232.5c0 95.41-77.35 172.75-172.76 172.75S25.62 327.91 25.62 232.5 102.97 59.74 198.38 59.74s172.76 77.35 172.76 172.76z"/><path fill="#5E1362" d="M351.58 259.69h-45.83c-3.72 0-6.47 3.47-6.47 7.19v64.17c0 2.38.97 3.17 2.84 4.33h-.03l26.56 26.71 26.59-26.71h-.02c1.86-1.16 2.29-1.95 2.29-4.33v-64.17c0-3.72-2.2-7.19-5.93-7.19"/><path fill="#ECECEC" d="M338.6 308.62l-7.74 4.84c-1.51.94-3.42.94-4.93 0l-7.74-4.84c-1.36-.85-2.19-2.34-2.19-3.94v-5.95h24.79v5.95c0 1.6-.83 3.09-2.19 3.94"/><path fill="#F9F9F9" d="M328 307.01l-17.86-10.71c-.5-.3-.5-1.03 0-1.33L328 284.25c.24-.14.55-.14.79 0l17.86 10.72c.5.3.5 1.03 0 1.33l-17.86 10.71c-.24.15-.55.15-.79 0M344 300.77l-1.16 2.91c-.21.52.17 1.1.74 1.1h.84c.57 0 .95-.58.74-1.1l-1.16-2.91z"/><path fill="#F9F9F9" d="M344.76 300.85c0 .42-.34.76-.76.76s-.76-.34-.76-.76.34-.77.76-.77.76.35.76.77"/><path fill="#69247F" d="M344 300.5c-.25 0-.46-.2-.46-.46v-1.62c0-.24-.17-.43-.4-.46l-14.92-1.74c-.25-.03-.43-.26-.4-.51.02-.25.25-.43.5-.4l14.92 1.74c.7.08 1.22.67 1.22 1.37v1.62c0 .26-.21.46-.46.46"/><path fill="#5E1362" d="M220.65 0h-45.83c-3.73 0-6.47 3.47-6.47 7.19v64.165c0 2.383.97 3.175 2.83 4.34h-.02l26.55 26.705 26.6-26.706h-.03c1.87-1.164 2.29-1.956 2.29-4.338V7.192c0-3.722-2.2-7.192-5.92-7.192M63.946 197.97H18.114c-3.723 0-6.468 3.47-6.468 7.19v64.17c0 2.38.97 3.17 2.833 4.33h-.027l26.556 26.71 26.597-26.71h-.027c1.864-1.16 2.292-1.95 2.292-4.33v-64.17c0-3.72-2.205-7.19-5.926-7.19"/><path fill="#2C2F3D" d="M58.92 226.54h-1.522c-.42 0-.76.34-.76.76v.76h-.76v-4.57c0-1.26-.51-2.4-1.337-3.22-.205-.21-.432-.4-.675-.56-.12-.08-.246-.16-.376-.23-.324-.17-.672-.31-1.035-.41-.365-.09-.747-.14-1.14-.14H30.78c-.09 0-.18 0-.267.01-.03 0-.056 0-.084.01-.063 0-.124.01-.185.01-.03.01-.06.01-.092.01l-.18.03c-.027.01-.054.01-.08.02-.086.01-.17.03-.253.05-.243.07-.478.15-.703.25l-.067.03c-.09.04-.178.08-.264.13-.13.07-.255.15-.377.23-.244.16-.47.35-.675.56-.178.17-.338.37-.485.57-.365.51-.63 1.1-.76 1.73-.06.3-.092.61-.092.92v4.57h-.762v-.76c0-.42-.34-.76-.76-.76h-1.52c-.42 0-.76.34-.76.76v4.56c0 .42.34.76.76.76h1.52c.42 0 .76-.34.76-.76v-.76h.762v18.25c0 .39.05.78.143 1.14.095.37.233.71.408 1.04.07.13.147.25.228.37.33.49.748.91 1.233 1.23.12.09.246.16.375.23.324.18.67.32 1.035.41.125.03.252.06.38.08v1.59c0 .41.34.76.76.76h2.282c.42 0 .76-.35.76-.76v-1.53h14.45v1.53c0 .41.34.76.76.76h2.282c.42 0 .76-.35.76-.76v-1.59c2.16-.36 3.804-2.24 3.804-4.5V231.1h.76v.76c0 .42.34.76.76.76h1.52c.42 0 .76-.34.76-.76v-4.56c0-.42-.34-.76-.76-.76"/><path fill="#2C2F3D" d="M33.822 255.44c0 .42-.34.76-.76.76h-2.28c-.422 0-.762-.34-.762-.76v-3.05c0-.42.34-.76.76-.76h2.282c.42 0 .76.34.76.76v3.05zM51.314 256.2h-2.28c-.422 0-.762-.35-.762-.76v-3.05c0-.42.34-.76.76-.76h2.282c.42 0 .76.34.76.76v3.05c0 .41-.34.76-.76.76"/><path fill="#ECECEC" d="M55.877 249.35c0 2.52-2.042 4.56-4.563 4.56H30.78c-2.52 0-4.563-2.04-4.563-4.56v-25.86c0-2.52 2.044-4.56 4.563-4.56h20.534c2.52 0 4.563 2.04 4.563 4.56v25.86z"/><path fill="#F9F9F9" d="M41.047 218.93H30.78c-2.52 0-4.563 2.04-4.563 4.56v25.86c0 2.52 2.043 4.56 4.563 4.56h10.267v-34.98z"/><path fill="#E53A12" d="M51.314 218.93H41.047v20.53h14.83v-15.97c0-2.52-2.043-4.56-4.563-4.56"/><path fill="#E7481D" d="M41.047 218.93H30.78c-.393 0-.775.05-1.14.14-.145.04-.29.09-.43.14-.21.07-.41.17-.604.27-.13.07-.256.15-.377.23-.123.08-.24.17-.352.26-.113.1-.22.19-.324.3-.826.82-1.337 1.96-1.337 3.22v15.97h14.83v-20.53z"/><path fill="#2C2F3D" d="M33.822 244.03c0 1.68-1.36 3.04-3.04 3.04-1.682 0-3.044-1.36-3.044-3.04s1.362-3.04 3.043-3.04c1.68 0 3.042 1.36 3.042 3.04"/><path fill="#8CCFDB" d="M33.062 244.03c0 1.26-1.022 2.28-2.282 2.28s-2.28-1.02-2.28-2.28 1.02-2.28 2.28-2.28c1.26 0 2.282 1.02 2.282 2.28"/><path fill="#F9F9F9" d="M29.205 244.41c-.18 0-.325-.15-.325-.33 0-1.08.876-1.95 1.954-1.95.18 0 .327.14.327.32s-.145.33-.326.33c-.718 0-1.303.58-1.303 1.3 0 .18-.145.33-.325.33"/><path fill="#2C2F3D" d="M54.356 244.03c0 1.68-1.362 3.04-3.042 3.04s-3.042-1.36-3.042-3.04 1.362-3.04 3.042-3.04 3.042 1.36 3.042 3.04"/><path fill="#8CCFDB" d="M53.596 244.03c0 1.26-1.022 2.28-2.282 2.28s-2.28-1.02-2.28-2.28 1.02-2.28 2.28-2.28 2.282 1.02 2.282 2.28"/><path fill="#F9F9F9" d="M49.74 244.41c-.182 0-.327-.15-.327-.33 0-1.08.877-1.95 1.955-1.95.18 0 .327.14.327.32s-.147.33-.327.33c-.72 0-1.304.58-1.304 1.3 0 .18-.145.33-.325.33"/><path fill="#8CCFDB" d="M54.356 239.46H27.74v-15.59c0-1.89 1.53-3.42 3.42-3.42h19.773c1.89 0 3.423 1.53 3.423 3.42v15.59z"/><path fill="#fff" d="M41.047 220.45H31.16c-1.89 0-3.42 1.53-3.42 3.42v15.59h13.307v-19.01z"/><path fill="#E53A12" d="M45.99 224.25h-9.887c-.42 0-.76-.34-.76-.76v-3.04H46.75v3.04c0 .42-.34.76-.76.76"/><path fill="#E7481D" d="M41.047 220.45h-5.704v3.04c0 .42.34.76.76.76h4.944v-3.8z"/><path fill="#2C2F3D" d="M45.61 223.49h-9.126c-.21 0-.38-.17-.38-.38v-2.66h9.886v2.66c0 .21-.17.38-.38.38"/><path fill="#E7481D" d="M23.175 232.62h1.522c.42 0 .76-.34.76-.76v-4.56c0-.42-.34-.76-.76-.76h-1.522c-.42 0-.76.34-.76.76v4.56c0 .42.34.76.76.76"/><path fill="#E53A12" d="M57.398 232.62h1.52c.42 0 .762-.34.762-.76v-4.56c0-.42-.34-.76-.76-.76h-1.522c-.42 0-.76.34-.76.76v4.56c0 .42.34.76.76.76"/><mask id="f" fill="#fff"><use xlink:href="#e"/></mask><path mask="url(#f)" fill="#2C2F3D" d="M25.457 231.1h.76v-3.04h-.76M55.878 231.1h.76v-3.04h-.76M36.237 233.54c.417-.46.673-1.06.673-1.73 0-.08-.005-.15-.01-.23l-.006-.05c-.007-.07-.02-.14-.032-.21-.004-.02-.008-.03-.01-.05-.016-.06-.03-.13-.05-.19-.005-.01-.01-.03-.014-.05-.02-.06-.04-.11-.063-.17-.01-.02-.02-.05-.03-.07-.024-.05-.05-.11-.077-.16-.016-.03-.032-.06-.05-.09-.015-.03-.033-.05-.05-.08-.034-.06-.07-.11-.106-.16-.014-.01-.026-.03-.04-.05-.085-.11-.18-.21-.282-.31-.005 0-.01-.01-.015-.01-.453-.41-1.054-.67-1.715-.67-1.408 0-2.582 1.14-2.582 2.55 0 .56.173 1.08.457 1.5.14.08.146.15.21.22 0 0 .02 0 .022.01-1.887.93-3.208 3.23-3.208 5.92H39.46c0-2.69-1.335-4.99-3.223-5.92"/><path mask="url(#f)" fill="#ECECEC" d="M216.97 200.66l6.39 5.68-.04-12.73-6.37.01"/><path mask="url(#f)" fill="#383432" d="M215.62 193.63l9.03-.03-.01-4.92-9.03.02"/><path mask="url(#f)" fill="#5E1362" d="M197.86 182.83l-46.43 42.02 93.08-.24"/><path mask="url(#f)" fill="#ECECEC" d="M235.52 272.31l-74.86.19-.12-47.68 37.13-33.7 37.73 33.52"/><path mask="url(#f)" fill="#6E6B6A" d="M224.12 256.46l-20.98.05-.01-3.48 20.98-.05"/><path mask="url(#f)" fill="#383432" d="M189.94 273.54l-17.79.04-.1-37.39 17.8-.04M221.36 253.47l-15.49.04-.04-16.29 15.49-.04"/><path mask="url(#f)" fill="#C1E2E7" d="M220.13 252.36l-13.03.04-.03-14.07 13.02-.03"/><path mask="url(#f)" fill="#69247F" d="M224.11 254.72l-20.98.05-.01-3.48 20.98-.05"/><path mask="url(#f)" fill="#F9F9F9" d="M197.56 191.22l-37.02 33.6.12 47.68 37.1-.09"/><path mask="url(#f)" fill="#383432" d="M188.71 272.43l-15.33.04-.09-35.17 15.33-.04"/><path mask="url(#f)" fill="#6E6B6A" d="M160.55 228.6l37.34-33.66 37.52 33.47-.01-3.78-37.73-33.51-37.13 33.7"/><path fill="#383432" mask="url(#f)" d="M187.71 254.99c0 .71-.63 1.28-1.41 1.28s-1.41-.56-1.41-1.27c-.01-.7.62-1.27 1.4-1.27.79-.01 1.42.56 1.42 1.26"/><path mask="url(#f)" fill="#6E6B6A" d="M239.58 275.78l-82.68.21-.02-3.91 82.69-.21"/><path mask="url(#f)" fill="#F4F4F4" d="M174.39 58.063h46.14V28.207h-46.14"/><path mask="url(#f)" fill="#E5E5E5" d="M197.91 58.063h22.62V28.207h-22.62"/><path mask="url(#f)" fill="#686868" d="M172.58 59.872h49.76v-1.81h-49.76"/><path mask="url(#f)" fill="#AFE8E8" d="M179.51 57.68h9.27V39.14h-9.27"/><path fill="#303030" mask="url(#f)" d="M179.82 58.063h9.05v-19h-9.05v19zm.45-.452h8.14V39.517h-8.14V57.61z"/><path mask="url(#f)" fill="#AFE8E8" d="M194.3 49.016h20.8v-9.952h-20.8"/><path fill="#303030" mask="url(#f)" d="M194.3 49.016h20.8v-9.952h-20.8v9.952zm.45-.453h19.9v-9.047h-19.9v9.047z"/><path mask="url(#f)" fill="#686868" d="M193.39 50.825h22.62v-.904h-22.62"/><path fill="#fff" mask="url(#f)" d="M186.6 50.825c.25 0 .46-.203.46-.452V47.66c0-.252-.21-.454-.46-.454s-.45.202-.45.453v2.713c0 .25.2.452.45.452"/><path mask="url(#f)" fill="#303030" d="M196.1 58.063h.91V49.92h-.91M212.39 58.063h.9V49.92h-.9"/><path fill="#FCBF12" mask="url(#f)" d="M197.91 48.11c0 .5-.4.905-.9.905s-.91-.405-.91-.904c0-.5.41-.904.91-.904s.9.405.9.905M199.72 48.11c0 .5-.4.905-.9.905s-.91-.405-.91-.904c0-.5.41-.904.91-.904s.9.405.9.905M202.44 48.11c0 .5-.41.905-.91.905s-.9-.405-.9-.904c0-.5.4-.904.9-.904s.91.405.91.905"/><path fill="#F0592B" mask="url(#f)" d="M205.15 48.11c0 .5-.4.905-.9.905s-.91-.405-.91-.904c0-.5.41-.904.91-.904s.9.405.9.905"/><path fill="#F0592B" mask="url(#f)" d="M206.06 47.206c0 .5-.41.904-.91.904s-.9-.404-.9-.904.4-.904.9-.904.91.404.91.904"/><path fill="#70BB17" mask="url(#f)" d="M211.48 48.11c0 .5-.4.905-.9.905s-.9-.405-.9-.904c0-.5.4-.904.9-.904s.9.405.9.905M213.29 48.11c0 .5-.4.905-.9.905s-.91-.405-.91-.904c0-.5.41-.904.91-.904s.9.405.9.905"/><path fill="#70BB17" mask="url(#f)" d="M212.39 47.206c0 .5-.41.904-.9.904-.51 0-.91-.404-.91-.904s.4-.904.91-.904c.49 0 .9.404.9.904"/><path fill="#F0592B" mask="url(#f)" d="M206.96 48.11c0 .5-.4.905-.9.905s-.91-.405-.91-.904c0-.5.41-.904.91-.904s.9.405.9.905"/><path fill="#F0592B" mask="url(#f)" d="M207.64 48.11c0 .5-.41.905-.9.905-.51 0-.91-.405-.91-.904 0-.5.4-.904.91-.904.49 0 .9.405.9.905"/><path fill="#F0592B" mask="url(#f)" d="M208.77 48.11c0 .5-.4.905-.9.905s-.91-.405-.91-.904c0-.5.41-.904.91-.904s.9.405.9.905"/><path fill="#FCBF12" mask="url(#f)" d="M201.08 47.658c0 .5-.4.905-.9.905s-.91-.405-.91-.905.41-.904.91-.904.9.405.9.904"/><path mask="url(#f)" fill="#6A138E" d="M193.39 49.92h22.62v-1.81h-22.62"/><path fill="#686868" mask="url(#f)" d="M174.39 37.218c.15.023.3.036.45.036 1.25 0 2.26-.81 2.26-1.81 0 1 1.02 1.81 2.27 1.81s2.26-.81 2.26-1.81c0 1 1.01 1.81 2.26 1.81s2.26-.81 2.26-1.81c0 1 1.01 1.81 2.26 1.81s2.27-.81 2.27-1.81c0 1 1.01 1.81 2.26 1.81s2.26-.81 2.26-1.81c0 1 1.01 1.81 2.26 1.81s2.26-.81 2.26-1.81c0 1 1.02 1.81 2.27 1.81 1.24 0 2.26-.81 2.26-1.81 0 1 1.01 1.81 2.26 1.81s2.26-.81 2.26-1.81c0 1 1.01 1.81 2.26 1.81s2.26-.81 2.26-1.81c0 1 1.02 1.81 2.27 1.81s2.26-.81 2.26-1.81c0 1 1.01 1.81 2.26 1.81.16 0 .31-.013.45-.036v-9.012h-46.14v9.012z"/><path fill="#399BE2" mask="url(#f)" d="M172.58 24.588v9.047c0 1 1.01 1.81 2.26 1.81s2.26-.81 2.26-1.81v-9.047h-4.52z"/><path fill="#A7DAE8" mask="url(#f)" d="M177.1 24.588v9.047c0 1 1.02 1.81 2.27 1.81s2.26-.81 2.26-1.81v-9.047h-4.53z"/><path fill="#399BE2" mask="url(#f)" d="M181.63 24.588v9.047c0 1 1.01 1.81 2.26 1.81s2.26-.81 2.26-1.81v-9.047h-4.52z"/><path fill="#A7DAE8" mask="url(#f)" d="M186.15 24.588v9.047c0 1 1.01 1.81 2.26 1.81s2.27-.81 2.27-1.81v-9.047h-4.53z"/><path fill="#399BE2" mask="url(#f)" d="M190.68 24.588v9.047c0 1 1.01 1.81 2.26 1.81s2.26-.81 2.26-1.81v-9.047h-4.52z"/><path fill="#A7DAE8" mask="url(#f)" d="M195.2 24.588v9.047c0 1 1.01 1.81 2.26 1.81s2.26-.81 2.26-1.81v-9.047h-4.52z"/><path fill="#399BE2" mask="url(#f)" d="M199.72 24.588v9.047c0 1 1.02 1.81 2.27 1.81 1.24 0 2.26-.81 2.26-1.81v-9.047h-4.53z"/><path fill="#A7DAE8" mask="url(#f)" d="M204.25 24.588v9.047c0 1 1.01 1.81 2.26 1.81s2.26-.81 2.26-1.81v-9.047h-4.52z"/><path fill="#399BE2" mask="url(#f)" d="M208.77 24.588v9.047c0 1 1.01 1.81 2.26 1.81s2.26-.81 2.26-1.81v-9.047h-4.52z"/><path fill="#A7DAE8" mask="url(#f)" d="M213.29 24.588v9.047c0 1 1.02 1.81 2.27 1.81s2.26-.81 2.26-1.81v-9.047h-4.53z"/><path fill="#399BE2" mask="url(#f)" d="M217.82 24.588v9.047c0 1 1.01 1.81 2.26 1.81s2.26-.81 2.26-1.81v-9.047h-4.52z"/><path mask="url(#f)" fill="#39ACE8" d="M172.58 31.826h4.53v-7.238h-4.53"/><path mask="url(#f)" fill="#AFE8E8" d="M177.1 31.826h4.53v-7.238h-4.53"/><path mask="url(#f)" fill="#39ACE8" d="M181.63 31.826h4.52v-7.238h-4.52"/><path mask="url(#f)" fill="#AFE8E8" d="M186.15 31.826h4.53v-7.238h-4.53"/><path mask="url(#f)" fill="#39ACE8" d="M190.68 31.826h4.52v-7.238h-4.52"/><path mask="url(#f)" fill="#AFE8E8" d="M195.2 31.826h4.52v-7.238h-4.52"/><path mask="url(#f)" fill="#39ACE8" d="M199.72 31.826h4.53v-7.238h-4.53"/><path mask="url(#f)" fill="#AFE8E8" d="M204.25 31.826h4.52v-7.238h-4.52"/><path mask="url(#f)" fill="#39ACE8" d="M208.77 31.826h4.52v-7.238h-4.52"/><path mask="url(#f)" fill="#AFE8E8" d="M213.29 31.826h4.53v-7.238h-4.53"/><path mask="url(#f)" fill="#39ACE8" d="M217.82 31.826h4.52v-7.238h-4.52"/><path fill="#303030" mask="url(#f)" d="M344.05 114.36c1.23-.9 2.96-.63 3.86.6l2.76 3.77c.9 1.23.64 2.96-.59 3.86-1.24.9-2.97.64-3.87-.59l-2.76-3.78c-.9-1.23-.63-2.96.6-3.86M357.49 113.92c1.23-.9 2.96-.63 3.86.6l2.76 3.77c.9 1.23.63 2.96-.6 3.86s-2.96.64-3.86-.6l-2.76-3.77c-.9-1.23-.63-2.96.6-3.86"/><path fill="#8F1FBE" mask="url(#f)" d="M354.6 156.85l-5.24 16.12c-.17.51-.07 1.11.28 1.58l1.33 1.82c.64.87 1.84 1 2.46.25l8.2-10.16-7.03-9.61z"/><path fill="#6A138E" mask="url(#f)" d="M354.6 156.85l16.95-.11c.54-.01 1.07.27 1.42.74l1.33 1.82c.64.88.4 2.06-.5 2.43l-12.17 4.73-7.03-9.61z"/><path fill="#E5E5E5" mask="url(#f)" d="M332.85 117.03l35.12-1.12c1.17-.09 2.3.43 2.99 1.38l2.66 3.63c1.28 1.76.61 4.25-1.38 5.13l-25.83 9.51-13.56-18.53z"/><path fill="#6A138E" mask="url(#f)" d="M370.23 123.3l-25.83 9.52 2.01 2.74 25.83-9.51c1.99-.88 2.67-3.37 1.38-5.13l-2.01-2.74c1.29 1.76.62 4.25-1.38 5.12"/><path fill="#303030" mask="url(#f)" d="M317.31 133.92c-1.23.9-1.5 2.63-.6 3.86l2.76 3.78c.9 1.23 2.63 1.5 3.86.59 1.23-.9 1.5-2.63.6-3.86l-2.76-3.77c-.9-1.23-2.63-1.5-3.86-.6M312.82 146.59c-1.23.9-1.5 2.63-.6 3.86l2.76 3.78c.9 1.23 2.63 1.5 3.86.6s1.5-2.63.6-3.86l-2.76-3.78c-.9-1.23-2.63-1.5-3.86-.6"/><path fill="#F4F4F4" mask="url(#f)" d="M323.25 124.06l-11.72 33.13c-.44 1.08-.28 2.32.41 3.27l2.66 3.63c1.29 1.76 3.87 1.87 5.3.24l16.9-21.74-13.55-18.53z"/><path fill="#8F1FBE" mask="url(#f)" d="M312.59 161.35l2.01 2.74c1.29 1.76 3.87 1.87 5.3.24l16.9-21.74-2.01-2.74-16.9 21.73c-1.43 1.64-4.01 1.52-5.3-.23"/><path fill="#F4F4F4" mask="url(#f)" d="M364.19 169.96c-2.65 1.94-6.31 1.52-8.31-.96l-42.84-53.14c-3.24-4.02-2.35-10.01 1.96-13.15 4.3-3.152 10.28-2.19 13.12 2.11l37.67 56.94c1.76 2.65 1.05 6.26-1.6 8.2"/><path fill="#F4F4F4" mask="url(#f)" d="M364.19 169.96c-2.65 1.94-6.31 1.52-8.3-.96l-42.85-53.15c-3.23-4.01-2.34-10 1.96-13.15 4.3-3.144 10.28-2.18 13.13 2.12l37.67 56.93c1.75 2.65 1.05 6.27-1.61 8.21"/><path fill="#E5E5E5" mask="url(#f)" d="M315 102.71l49.19 67.25c2.65-1.94 3.36-5.55 1.6-8.2l-37.67-56.94c-2.84-4.3-8.82-5.262-13.12-2.11M321.18 118.38c.44.6.31 1.44-.29 1.88-.6.43-1.44.3-1.87-.3-.44-.59-.31-1.43.29-1.87.59-.44 1.43-.31 1.87.29M323.81 121.98c.44.6.31 1.44-.29 1.87-.6.44-1.44.31-1.87-.29-.44-.6-.31-1.44.29-1.87.6-.44 1.43-.31 1.87.29M326.44 125.57c.44.6.31 1.44-.29 1.88s-1.43.31-1.87-.29-.31-1.44.29-1.88c.6-.43 1.44-.3 1.87.29"/><path fill="#E5E5E5" mask="url(#f)" d="M330.23 111.76c.44.6.31 1.44-.29 1.88s-1.44.31-1.88-.29c-.43-.6-.3-1.44.29-1.88.6-.44 1.44-.31 1.88.29M332.86 115.36c.44.6.31 1.44-.29 1.88-.6.43-1.44.3-1.88-.3-.43-.59-.3-1.43.29-1.87.6-.44 1.44-.31 1.88.29M335.49 118.96c.44.6.31 1.44-.29 1.87-.6.44-1.44.31-1.87-.29-.44-.6-.31-1.44.29-1.87.59-.44 1.43-.31 1.87.29"/><path fill="#9B9B9B" mask="url(#f)" d="M317.18 105.68l2.02 2.77s3.65-2.63 6.24-3.26c.17-.04.18-.29 0-.34-1.49-.4-5.07-1.03-8.26.83"/><path fill="#9B9B9B" mask="url(#f)" d="M317.17 105.68l2.03 2.76s-3.61 2.69-4.99 4.96c-.1.16-.34.09-.33-.1.08-1.54.56-5.14 3.29-7.62"/></g></svg>