<svg xmlns="http://www.w3.org/2000/svg" xmlns:xlink="http://www.w3.org/1999/xlink" width="264" height="206" viewBox="-8 0 264 206"><defs><path id="a" d="M0 0h248v190H0z"/><path id="c" d="M0 0h212v162H0z"/><path id="f" d="M-68.452 140.628L.326 127.252l70.883 7.806 74.413-107.226 66.43 58.67 71.089-17.545 70.03-23.449 70.78-19.959 69.98 29.447 70.512-35.228 70.783 70.456 70.646-11.613 69.544 11.613L846.11 63.49l70.94 5.466 69.626-21.936 24.555 55.257v92.53H-279.643v-50.646l68.76-28.161 70.081 18.772z"/><filter x="-50%" y="-50%" width="200%" height="200%" filterUnits="objectBoundingBox" id="e"><feMorphology radius="1" operator="dilate" in="SourceAlpha" result="shadowSpreadOuter1"/><feOffset dy="2" in="shadowSpreadOuter1" result="shadowOffsetOuter1"/><feMorphology radius="1" in="SourceAlpha" result="shadowInner"/><feOffset dy="2" in="shadowInner" result="shadowInner"/><feComposite in="shadowOffsetOuter1" in2="shadowInner" operator="out" result="shadowOffsetOuter1"/><feGaussianBlur stdDeviation="1" in="shadowOffsetOuter1" result="shadowBlurOuter1"/><feColorMatrix values="0 0 0 0 0 0 0 0 0 0 0 0 0 0 0 0 0 0 0.2 0" in="shadowBlurOuter1"/></filter><path id="g" d="M0 0h217v162.944H0z"/><path id="j" d="M-67.352 32.759L3.994 67.987l69.848-11.972L143.255 86.5l93.973 66.015 75.095-71.922 69.504 5.907h70.909l69.547 48.612 67.367-43.163 72.402 15.924 73.057-27.28 68.412 33.076 72.809 21.443L919.714 140l70.132 39.398 23.968-53.121v92.53H-277.06v-50.646L-208.3 140l70.497-125.138z"/><filter x="-50%" y="-50%" width="200%" height="200%" filterUnits="objectBoundingBox" id="i"><feMorphology radius="1" operator="dilate" in="SourceAlpha" result="shadowSpreadOuter1"/><feOffset dy="-2" in="shadowSpreadOuter1" result="shadowOffsetOuter1"/><feMorphology radius="1" in="SourceAlpha" result="shadowInner"/><feOffset dy="-2" in="shadowInner" result="shadowInner"/><feComposite in="shadowOffsetOuter1" in2="shadowInner" operator="out" result="shadowOffsetOuter1"/><feGaussianBlur stdDeviation="1" in="shadowOffsetOuter1" result="shadowBlurOuter1"/><feColorMatrix values="0 0 0 0 0 0 0 0 0 0 0 0 0 0 0 0 0 0 0.2 0" in="shadowBlurOuter1"/></filter><filter x="-50%" y="-50%" width="200%" height="200%" filterUnits="objectBoundingBox" id="k"><feOffset dy="2" in="SourceAlpha" result="shadowOffsetOuter1"/><feGaussianBlur stdDeviation="1" in="shadowOffsetOuter1" result="shadowBlurOuter1"/><feColorMatrix values="0 0 0 0 0 0 0 0 0 0 0 0 0 0 0 0 0 0 0.2 0" in="shadowBlurOuter1" result="shadowMatrixOuter1"/><feMerge><feMergeNode in="shadowMatrixOuter1"/><feMergeNode in="SourceGraphic"/></feMerge></filter><filter x="-50%" y="-50%" width="200%" height="200%" filterUnits="objectBoundingBox" id="l"><feOffset dy="2" in="SourceAlpha" result="shadowOffsetOuter1"/><feGaussianBlur stdDeviation="2" in="shadowOffsetOuter1" result="shadowBlurOuter1"/><feColorMatrix values="0 0 0 0 0 0 0 0 0 0 0 0 0 0 0 0 0 0 0.2 0" in="shadowBlurOuter1" result="shadowMatrixOuter1"/><feMerge><feMergeNode in="shadowMatrixOuter1"/><feMergeNode in="SourceGraphic"/></feMerge></filter><path d="M18.004 36.009c9.944 0 18.005-8.061 18.005-18.005C36.009 8.061 27.948 0 18.004 0 8.061 0 0 8.06 0 18.004S8.06 36.01 18.004 36.01z" id="n"/><filter x="-50%" y="-50%" width="200%" height="200%" filterUnits="objectBoundingBox" id="m"><feOffset in="SourceAlpha" result="shadowOffsetOuter1"/><feGaussianBlur stdDeviation="4.5" in="shadowOffsetOuter1" result="shadowBlurOuter1"/><feColorMatrix values="0 0 0 0 0 0 0 0 0 0 0 0 0 0 0 0 0 0 0.1 0" in="shadowBlurOuter1"/></filter><ellipse id="p" cx="18.004" cy="18.004" rx="18.004" ry="18.004"/><filter x="-50%" y="-50%" width="200%" height="200%" filterUnits="objectBoundingBox" id="o"><feOffset in="SourceAlpha" result="shadowOffsetOuter1"/><feGaussianBlur stdDeviation="4.5" in="shadowOffsetOuter1" result="shadowBlurOuter1"/><feColorMatrix values="0 0 0 0 0 0 0 0 0 0 0 0 0 0 0 0 0 0 0.1 0" in="shadowBlurOuter1"/></filter><ellipse id="r" cx="18.466" cy="18.466" rx="18.466" ry="18.466"/><filter x="-50%" y="-50%" width="200%" height="200%" filterUnits="objectBoundingBox" id="q"><feOffset in="SourceAlpha" result="shadowOffsetOuter1"/><feGaussianBlur stdDeviation="4.5" in="shadowOffsetOuter1" result="shadowBlurOuter1"/><feColorMatrix values="0 0 0 0 0 0 0 0 0 0 0 0 0 0 0 0 0 0 0.1 0" in="shadowBlurOuter1"/></filter><ellipse id="t" cx="18.466" cy="18.466" rx="18.466" ry="18.466"/><filter x="-50%" y="-50%" width="200%" height="200%" filterUnits="objectBoundingBox" id="s"><feOffset in="SourceAlpha" result="shadowOffsetOuter1"/><feGaussianBlur stdDeviation="4.5" in="shadowOffsetOuter1" result="shadowBlurOuter1"/><feColorMatrix values="0 0 0 0 0 0 0 0 0 0 0 0 0 0 0 0 0 0 0.1 0" in="shadowBlurOuter1"/></filter></defs><g fill="none" fill-rule="evenodd"><g transform="translate(7)"><mask id="b" fill="#fff"><use xlink:href="#a"/></mask><g mask="url(#b)"><path d="M-153.38-18.241h695.55m-695.55 52.68h695.55m-695.605 106.936h695.95m-695.95 55.748h695.608M-153.38 89.439h695.55" stroke="#FFF" stroke-width="1.5" stroke-linecap="square"/><g transform="translate(19.378 6.307)"><mask id="d" fill="#fff"><use xlink:href="#c"/></mask><g mask="url(#d)"><use fill="#000" filter="url(#e)" xlink:href="#f"/><use stroke="#4A4A4A" stroke-width="2" stroke-linecap="round" stroke-linejoin="round" xlink:href="#f"/></g></g><g transform="matrix(1 0 0 -1 17.895 190.646)"><mask id="h" fill="#fff"><use xlink:href="#g"/></mask><g mask="url(#h)" transform="matrix(-1 0 0 1 736.755 0)"><use fill="#000" filter="url(#i)" xlink:href="#j"/><use stroke="#00AAD2" stroke-width="2" stroke-linecap="round" stroke-linejoin="round" xlink:href="#j"/></g></g><g transform="translate(-126.56 38.28)" fill="#00AAD2"><ellipse cx="5.167" cy="16.793" rx="5.167" ry="5.167"/><ellipse cx="77.507" cy="38.753" rx="5.167" ry="5.167"/><ellipse cx="145.971" cy="71.048" rx="5.167" ry="5.167"/><ellipse cx="218.311" cy="45.881" rx="5.167" ry="5.167"/><ellipse cx="357.824" cy="18.085" rx="5.167" ry="5.167"/><ellipse cx="291.068" cy="59.422" rx="5.167" ry="5.167"/><ellipse cx="428.872" cy="65.881" rx="5.167" ry="5.167"/><ellipse cx="499.92" cy="65.881" rx="5.167" ry="5.167"/><ellipse cx="568.384" cy="71.048" rx="5.167" ry="5.167"/><ellipse cx="638.141" cy="5.167" rx="5.167" ry="5.167"/></g><g transform="translate(-126.56 27.946)" fill="#4A4A4A"><ellipse cx="5.167" cy="112.385" rx="5.167" ry="5.167"/><ellipse cx="77.507" cy="118.844" rx="5.167" ry="5.167"/><ellipse cx="145.971" cy="107.218" rx="5.167" ry="5.167"/><ellipse cx="217.019" cy="113.677" rx="5.167" ry="5.167"/><ellipse cx="291.943" cy="5.167" rx="5.167" ry="5.167"/><ellipse cx="357.824" cy="64.589" rx="5.167" ry="5.167"/><ellipse cx="428.872" cy="47.796" rx="5.167" ry="5.167"/><ellipse cx="499.92" cy="24.544" rx="5.167" ry="5.167"/><ellipse cx="568.384" cy="5.167" rx="5.167" ry="5.167"/><ellipse cx="639.432" cy="33.586" rx="5.167" ry="5.167"/></g><g filter="url(#k)" transform="translate(155 25)"><ellipse stroke="#4A4A4A" fill="#4A4A4A" opacity=".3" cx="9.908" cy="9.908" rx="9.908" ry="9.908"/><ellipse fill="#FFF" opacity=".4" cx="9.807" cy="9.807" rx="7.605" ry="7.605"/><ellipse stroke="#4A4A4A" stroke-width="2" fill="#FFF" cx="9.908" cy="9.908" rx="5.504" ry="5.504"/></g><g filter="url(#l)" transform="translate(155 88)"><ellipse stroke="#27ABD2" stroke-linecap="round" stroke-linejoin="round" fill="#27ABD2" opacity=".3" cx="9.908" cy="9.908" rx="9.908" ry="9.908"/><ellipse fill="#FFF" opacity=".4" cx="9.655" cy="9.655" rx="7.655" ry="7.655"/><ellipse stroke="#27ABD2" stroke-width="2" stroke-linecap="round" stroke-linejoin="round" fill="#FFF" cx="9.704" cy="9.604" rx="5.504" ry="5.504"/></g></g></g><g transform="translate(54.611 160)"><use fill="#000" filter="url(#m)" xlink:href="#n"/><use fill="#FFF" xlink:href="#n"/></g><path d="M81.315 184.695a4.694 4.694 0 0 0-1.046-.275c-.318-.027-.552-.105-.7-.234-.089-.054-.207-.247-.356-.58a13.964 13.964 0 0 1-.66-1.516 27.785 27.785 0 0 0-.66-1.67c-.386-.902-.711-1.7-.975-2.391-.142-.373-.562-1.38-1.26-3.023l-2.08-4.885-.112-.213h-1.3l-2.843 7.368-2.407 6.269c-.19.353-.352.584-.487.692-.142.102-.515.207-1.117.315a8.167 8.167 0 0 0-.813.184l-.02.804h.213c.582 0 1.148-.048 1.696-.143l.487-.08c1.916.135 3.098.203 3.544.203.014-.068.02-.16.02-.275 0-.204-.003-.4-.01-.59-.142-.02-.279-.041-.41-.061a9.545 9.545 0 0 1-.305-.051 1.014 1.014 0 0 0-.137-.02c-.522-.075-.87-.184-1.046-.326-.115-.082-.173-.227-.173-.438 0-.136.078-.42.234-.855.507-1.418.86-2.347 1.056-2.788l4.569.02.934 2.32.477 1.16c.041.116.061.225.061.326a.38.38 0 0 1-.122.275c-.08.068-.31.146-.69.234l-1.33.285c-.028.224-.04.488-.04.794l.588-.02 2.03-.113c.38-.013.837-.02 1.372-.02.65 0 1.29.027 1.919.081.758.055 1.408.082 1.95.082.006-.082.01-.17.01-.265 0-.122-.02-.315-.061-.58zm-7.9-5.78c-.095 0-.273-.002-.533-.006l-1.209-.015-1.558-.02 1.726-4.58c.264.536.575 1.252.934 2.147.406.991.718 1.809.934 2.453l-.294.02z" fill="#4A4A4A"/><g transform="translate(1 160)"><use fill="#000" filter="url(#o)" xlink:href="#p"/><use fill="#FFF" xlink:href="#p"/></g><path fill="#4A4A4A" d="M27.617 179.51h-7.15v7.279h-2.998v-7.28h-7.236l.128-3.04h7.108v-7.236h2.998v7.236h7.022z"/><g><g transform="translate(156.174 160)"><use fill="#000" filter="url(#q)" xlink:href="#r"/><use fill="#FFF" xlink:href="#r"/></g><path d="M171.804 174.41c0 .533-.186.986-.56 1.36a1.85 1.85 0 0 1-1.359.56 1.85 1.85 0 0 1-1.36-.56 1.85 1.85 0 0 1-.56-1.36c0-.533.187-.986.56-1.36a1.85 1.85 0 0 1 1.36-.559c.533 0 .986.187 1.36.56.373.373.56.826.56 1.36zm10.236 3.838v4.478h-14.074v-1.919l3.198-3.198 1.6 1.599 5.118-5.118 4.158 4.158zm.96-7.036h-15.994a.307.307 0 0 0-.225.094.307.307 0 0 0-.095.225v12.155c0 .087.032.162.095.225a.307.307 0 0 0 .225.095H183a.307.307 0 0 0 .225-.095.307.307 0 0 0 .095-.225v-12.155a.307.307 0 0 0-.095-.225.307.307 0 0 0-.225-.094zm1.599.32v12.154c0 .44-.157.816-.47 1.13a1.54 1.54 0 0 1-1.13.47h-15.993a1.54 1.54 0 0 1-1.13-.47 1.54 1.54 0 0 1-.469-1.13v-12.155c0-.44.157-.816.47-1.13a1.54 1.54 0 0 1 1.13-.469h15.992c.44 0 .817.157 1.13.47.313.313.47.69.47 1.13z" fill="#4A4A4A"/></g><g><g transform="translate(104.946 160)"><use fill="#000" filter="url(#s)" xlink:href="#t"/><use fill="#FFF" xlink:href="#t"/></g><path d="M120.115 178.07v4.749h-2.375v-4.749h2.375zm3.56-4.748v9.497h-2.373v-9.497h2.374zm9.498 10.684v1.187h-18.994v-14.245h1.187v13.058h17.807zm-5.936-8.31v7.123h-2.374v-7.123h2.374zm3.561-3.561v10.684h-2.374v-10.684h2.374z" fill="#4A4A4A"/></g></g></svg>